<?xml version="1.0" encoding="UTF-8" standalone="no"?>
<!-- Created with Inkscape (http://www.inkscape.org/) -->

<svg
   xmlns:dc="http://purl.org/dc/elements/1.1/"
   xmlns:cc="http://creativecommons.org/ns#"
   xmlns:rdf="http://www.w3.org/1999/02/22-rdf-syntax-ns#"
   xmlns:svg="http://www.w3.org/2000/svg"
   xmlns="http://www.w3.org/2000/svg"
   xmlns:sodipodi="http://sodipodi.sourceforge.net/DTD/sodipodi-0.dtd"
   xmlns:inkscape="http://www.inkscape.org/namespaces/inkscape"
   width="1230"
   height="93"
   viewBox="0 0 325.43749 24.606251"
   version="1.1"
   id="svg8"
   inkscape:version="0.92.4 (5da689c313, 2019-01-14)"
   sodipodi:docname="nav-desktop.svg">
  <defs
     id="defs2">
    <style
       id="style815"
       type="text/css">
   
    .fil0 {fill:black}
   
  </style>
  </defs>
  <sodipodi:namedview
     id="base"
     pagecolor="#ffffff"
     bordercolor="#666666"
     borderopacity="1.0"
     inkscape:pageopacity="0.0"
     inkscape:pageshadow="2"
     inkscape:zoom="1.4142136"
     inkscape:cx="578.90116"
     inkscape:cy="149.27142"
     inkscape:document-units="px"
     inkscape:current-layer="layer1"
     showgrid="false"
     units="px"
     inkscape:window-width="2400"
     inkscape:window-height="1321"
     inkscape:window-x="2391"
     inkscape:window-y="-9"
     inkscape:window-maximized="1"
     inkscape:snap-global="false"
     showguides="true"
     inkscape:guide-bbox="true"
     inkscape:showpageshadow="false"
     borderlayer="false">
    <sodipodi:guide
       position="0,68.791669"
       orientation="1,0"
       id="guide837"
       inkscape:locked="false" />
    <sodipodi:guide
       position="325.43336,24.945247"
       orientation="1,0"
       id="guide839"
       inkscape:locked="false" />
    <sodipodi:guide
       position="162.72288,23.609929"
       orientation="1,0"
       id="guide843"
       inkscape:locked="false" />
  </sodipodi:namedview>
  <metadata
     id="metadata5">
    <rdf:RDF>
      <cc:Work
         rdf:about="">
        <dc:format>image/svg+xml</dc:format>
        <dc:type
           rdf:resource="http://purl.org/dc/dcmitype/StillImage" />
        <dc:title></dc:title>
      </cc:Work>
    </rdf:RDF>
  </metadata>
  <g
     inkscape:label="Layer 1"
     inkscape:groupmode="layer"
     id="layer1"
     transform="translate(0,-272.39374)">
    <g
       style="clip-rule:evenodd;fill-rule:evenodd;image-rendering:optimizeQuality;shape-rendering:geometricPrecision;text-rendering:geometricPrecision"
       id="g821"
       transform="matrix(0.11006852,0,0,0.10667115,87.119939,252.25536)">
      <path
         style="fill:#000000"
         inkscape:connector-curvature="0"
         class="fil0"
         d="M 32,140 C 31,80 94,41 146,69 c 16,-32 53,-48 88,-39 40,-51 121,-34 135,31 122,15 70,200 -51,141 -15,17 -88,21 -98,-15 -8,29 -47,36 -65,12 -28,20 -67,20 -94,-2 -59,39 -87,-51 -29,-57 z"
         id="path819" />
    </g>
    <g
       transform="matrix(0.13505908,0,0,0.13159912,123.73317,247.57417)"
       id="g846"
       style="clip-rule:evenodd;fill-rule:evenodd;image-rendering:optimizeQuality;shape-rendering:geometricPrecision;text-rendering:geometricPrecision">
      <path
         id="path844"
         d="M 32,140 C 31,80 94,41 146,69 c 16,-32 53,-48 88,-39 40,-51 121,-34 135,31 122,15 70,200 -51,141 -15,17 -88,21 -98,-15 -8,29 -47,36 -65,12 -28,20 -67,20 -94,-2 -59,39 -87,-51 -29,-57 z"
         class="fil0"
         inkscape:connector-curvature="0"
         style="fill:#000000" />
    </g>
    <g
       style="clip-rule:evenodd;fill-rule:evenodd;image-rendering:optimizeQuality;shape-rendering:geometricPrecision;text-rendering:geometricPrecision"
       id="g850"
       transform="matrix(0.12316324,-0.03017046,-0.03017046,-0.12316324,163.30471,284.78821)">
      <path
         style="fill:#000000"
         inkscape:connector-curvature="0"
         class="fil0"
         d="M 32,140 C 31,80 94,41 146,69 c 16,-32 53,-48 88,-39 40,-51 121,-34 135,31 122,15 70,200 -51,141 -15,17 -88,21 -98,-15 -8,29 -47,36 -65,12 -28,20 -67,20 -94,-2 -59,39 -87,-51 -29,-57 z"
         id="path848" />
    </g>
    <g
       transform="matrix(0.10244077,0.001333,-0.00129874,0.09980751,197.38133,253.28362)"
       id="g854"
       style="clip-rule:evenodd;fill-rule:evenodd;image-rendering:optimizeQuality;shape-rendering:geometricPrecision;text-rendering:geometricPrecision">
      <path
         id="path852"
         d="M 32,140 C 31,80 94,41 146,69 c 16,-32 53,-48 88,-39 40,-51 121,-34 135,31 122,15 70,200 -51,141 -15,17 -88,21 -98,-15 -8,29 -47,36 -65,12 -28,20 -67,20 -94,-2 -59,39 -87,-51 -29,-57 z"
         class="fil0"
         inkscape:connector-curvature="0"
         style="fill:#000000" />
    </g>
    <g
       id="g903"
       transform="matrix(0.0105241,0,0,0.0105241,94.171626,291.18326)">
      <path
         id="path886"
         d="M 45.7,335.8 H 75.8 V 149.4 L 130.9,312 c 0,0 -16.9,34 -18.2,71.4 -1.6,45.3 23.8,179.6 23.8,179.6 H 179 l -2.5,-170.2 80,170.2 H 297 L 225.7,331.3 c 0,0 48.4,42.3 68.4,48.7 38.9,12.4 163.2,0 163.2,0 V 563 H 501 l 17.2,-177.6 h 49.2 l 64,177.6 h 36.9 l -36.9,-199.7 80.2,60.9 c 0,0 -15.2,42.4 -3.4,70.7 18.3,43.6 59.8,68.1 136.4,68.1 31.5,0 46.5,0 46.5,0 L 840,416.7 879.1,363 c 6.2,-9.7 -3.8,-21.7 -14.5,-17.2 l -49.2,20.7 13.3,-51.7 c 2.7,-10.5 -9,-18.7 -18,-12.7 L 787,318 c 0,0 -86.1,-291.5 -170.5,-291.5 -119.2,0 -364.7,0 -499.3,0 -150,-0.1 -71.5,309.3 -71.5,309.3 z"
         inkscape:connector-curvature="0" />
      <text
         id="text888"
         font-weight="bold"
         font-size="5px"
         y="603"
         x="0"
         style="font-weight:bold;font-size:5px;font-family:'Helvetica Neue', Helvetica, Arial-Unicode, Arial, Sans-serif;fill:#000000">Created by Misha Petrishchev</text>
      <text
         id="text890"
         font-weight="bold"
         font-size="5px"
         y="608"
         x="0"
         style="font-weight:bold;font-size:5px;font-family:'Helvetica Neue', Helvetica, Arial-Unicode, Arial, Sans-serif;fill:#000000">from the Noun Project</text>
    </g>
    <g
       id="g935"
       transform="matrix(0.36704822,0,0,0.36704822,82.515781,177.64062)" />
    <g
       transform="matrix(0.30222415,0,0,0.30222415,206.76938,199.09039)"
       id="g941">
      <path
         inkscape:connector-curvature="0"
         d="m 55.223527,305.60808 c 0.132291,0.0794 0.3175,0.0794 0.47625,0 0.502708,-0.42333 1.719791,-1.11125 2.169583,-1.56104 0.582083,-0.55562 0.238125,-0.87312 -0.423333,-0.44979 -0.47625,0.3175 -0.687917,0.71438 -1.5875,1.50813 0.185208,-0.3175 1.349375,-2.06375 1.481666,-2.9898 0.07937,-0.52916 -0.238125,-0.635 -0.608541,-0.15875 -0.449792,0.58209 -0.687917,1.98438 -1.11125,3.04271 0.449791,-1.53458 0.264583,-3.57187 0.211666,-3.96875 -0.07937,-0.74083 -0.423333,-0.87312 -0.661458,-0.0529 -0.211666,0.71437 -0.3175,1.71979 0.15875,3.9952 0.343958,0.89959 -1.27,-2.67229 -1.27,-2.67229 -0.264583,-0.34396 -0.608541,-0.52916 -0.555625,0.26459 0.05292,0.79375 0.740834,1.64041 1.640417,2.61937 -0.555625,-0.47625 -1.561042,-1.29646 -1.931458,-1.42875 -0.502709,-0.18521 -0.714375,0.10583 -0.3175,0.44979 0.529166,0.44979 2.143125,1.29646 2.328333,1.40229 z"
         id="path937"
         style="stroke-width:0.26458332" />
      <path
         inkscape:connector-curvature="0"
         d="m 61.599985,310.82037 c -0.47625,-1.05833 -2.248958,-2.64583 -2.831042,-2.51354 -0.582083,0.13229 -1.905,0.84667 -2.645833,1.34938 0.714375,-0.66146 1.322917,-1.42875 1.852083,-2.24896 0.05292,-0.10584 0.07938,-0.21167 0.07938,-0.3175 v 0 l 0.370417,-0.26459 c 0.02646,-0.0264 0.02646,-0.0794 0,-0.0794 -0.02646,-0.0265 -0.05292,-0.0265 -0.07937,0 l -0.3175,0.23812 c 0,-0.0264 0,-0.0264 0,-0.0529 l 0.3175,-0.50271 c 0.02646,-0.0265 0,-0.0794 -0.02646,-0.0794 -0.02646,0 -0.07938,0 -0.07938,0.0265 v 0 l -0.264584,0.44979 c -0.02646,-0.0264 -0.02646,-0.0264 -0.05292,-0.0529 l 0.185208,-0.58209 c 0,-0.0265 0,-0.0794 -0.02646,-0.0794 0,0 0,0 0,0 -0.02646,0 -0.05292,0 -0.07937,0.0265 l -0.185209,0.58208 h -0.02646 l -0.05292,-0.60854 c 0,-0.0265 -0.02646,-0.0529 -0.05292,-0.0529 0,0 0,0 0,0 -0.02646,0 -0.05292,0.0265 -0.05292,0.0529 0,0 0,0 0,0 l 0.05292,0.60854 c -0.185209,0.0265 -0.343959,0.13229 -0.47625,0.26458 -0.449792,0.68792 -0.846667,1.4023 -1.190625,2.14313 -0.105834,-0.66146 -0.07937,-3.175 -0.105834,-3.91583 -0.264583,0.0529 -0.529166,0.0529 -0.793749,0 0,0.635 0.105833,1.5875 0.105833,2.14312 -0.370417,-0.76729 -1.455208,-1.48167 -2.06375,-1.48167 -0.608542,0 -2.8575,2.75167 -3.227917,3.25438 -0.502708,0.71437 -0.608541,1.19062 0.15875,0.52917 0.529167,-0.4498 2.143125,-2.46063 2.804584,-2.40771 1.666875,0.10583 2.196041,2.40771 2.2225,2.88396 0.02646,0.66145 -0.02646,1.34937 -0.02646,1.66687 -0.449791,-1.03187 -0.47625,-1.61396 -1.005416,-2.43417 -0.07937,-0.10583 -0.15875,-0.21166 -0.264584,-0.29104 l 0.05292,-0.58208 c 0,-0.0265 -0.02646,-0.0529 -0.05292,-0.0794 -0.02646,0 -0.05292,0.0265 -0.07937,0.0529 l -0.05292,0.52917 c -0.05292,-0.0265 -0.07937,-0.0265 -0.132292,-0.0265 0,0 0,0 0,-0.0265 l -0.05292,-0.55562 c 0,-0.0265 -0.02646,-0.0529 -0.07937,-0.0529 0,0 0,0 0,0 -0.02646,0 -0.05292,0.0265 -0.05292,0.0794 l 0.07938,0.58209 c 0,0 0,0.0265 0.02646,0.0265 -0.02646,0 -0.02646,0.0265 -0.05292,0.0529 l -0.238125,-0.39687 c -0.02646,-0.0265 -0.05292,-0.0529 -0.07938,-0.0265 -0.02646,0.0265 -0.05292,0.0529 -0.02646,0.0794 0,0 0,0 0,0 l 0.264583,0.42334 c 0,0 0,0 0.02646,0.0265 0,0 0,0.0265 0,0.0265 l -0.343959,-0.26458 c -0.02646,-0.0265 -0.05292,-0.0265 -0.07937,0 -0.02646,0.0265 -0.02646,0.0529 0,0.0794 l 0.343959,0.26458 h 0.02646 c -0.02646,0.21167 0,0.39687 0.07937,0.58208 0.3175,0.82021 0.846667,1.32292 1.164167,1.87854 -0.846667,-0.71437 -1.957917,-1.27 -2.8575,-1.29645 -1.137709,0 -1.878542,0.92604 -2.513542,1.66687 -0.582083,0.68792 -0.3175,0.71438 0.291042,0.37042 0.47625,-0.29104 1.508125,-1.08479 2.037291,-1.08479 0.714375,0 1.931459,0.68791 2.248959,1.00541 0.555625,0.58209 1.005416,1.40229 1.11125,2.8575 -1.137709,-1.48166 -2.460625,-1.53458 -3.148542,-1.45521 -0.02646,0 -0.05292,0.0265 -0.02646,0.0529 0,0.0265 0.02646,0.0265 0.02646,0.0265 1.137708,0.39687 2.778125,1.29646 3.175,2.40771 -0.02646,0.76729 0.05292,1.56104 -0.05292,2.46062 -0.211666,-0.635 -0.529166,-1.24354 -0.926041,-1.79916 -0.07938,-0.10584 -0.15875,-0.18521 -0.264584,-0.23813 v 0 l 0.105834,-0.37042 c 0,-0.0265 0,-0.0794 -0.05292,-0.0794 -0.02646,0 -0.05292,0 -0.07937,0.0265 0,0 0,0 0,0 l -0.07937,0.23812 -0.05292,-0.29104 c 0,-0.0265 -0.05292,-0.0529 -0.07937,-0.0529 0,0 0,0 0,0 -0.02646,0 -0.05292,0.0529 -0.05292,0.0794 l 0.105833,0.37042 -0.291042,-0.39688 c -0.02646,-0.0265 -0.05292,-0.0265 -0.07938,0 -0.02646,0.0265 -0.02646,0.0529 -0.02646,0.0794 0,0 0,0 0,0 l 0.3175,0.42333 v 0 l -0.396875,-0.3175 c -0.02646,-0.0265 -0.05292,-0.0265 -0.07937,0 -0.02646,0.0265 -0.02646,0.0529 0,0.0794 0,0 0,0 0,0 l 0.449792,0.34396 c 0,0.13229 0,0.26459 0.05292,0.37042 0.211667,0.66146 0.3175,0.76729 1.27,2.06375 -0.423333,-0.42333 -1.74625,-1.95792 -2.566458,-1.905 -0.820208,0.0529 -1.481667,0.60854 -2.116667,1.53458 -0.555625,0.82021 0,0.44979 0.502709,0.10584 0.502708,-0.34396 0.661458,-0.635 1.5875,-0.74084 0.926041,-0.10583 2.645833,1.98438 2.751666,2.69875 0.105834,0.71438 -0.132291,2.80459 -0.238125,3.43959 0.449792,0.0529 1.27,-0.1323 1.666875,-0.21167 -0.05292,-0.42333 -0.211667,-1.37583 -0.264583,-2.03729 -0.05292,-0.66146 1.481666,-3.70417 2.248958,-3.70417 0.767292,0 1.375833,0.52917 2.010833,1.08479 0.820209,0.71438 0.926042,0.21167 0.449792,-0.3175 -0.47625,-0.52916 -1.5875,-1.5875 -2.196042,-1.5875 -0.608541,0 -2.248958,0.82021 -2.619375,2.24896 0.02646,-1.11125 0.05292,-2.2225 0.132292,-3.36021 0.05292,-0.71437 1.984375,-1.19062 2.645833,-1.16416 0.661459,0.0264 2.513542,1.64041 2.69875,1.79916 0.185209,0.15875 0.582084,0.60854 0.105834,-0.44979 -0.47625,-1.05833 -2.248959,-2.64583 -2.831042,-2.51354 -0.582083,0.13229 -1.905,0.84667 -2.645833,1.34937 0.608541,-0.58208 1.164166,-1.24354 1.5875,-1.95791 0.07937,-0.13229 0.105833,-0.26459 0.105833,-0.39688 l 0.449792,-0.18521 c 0.02646,-0.0265 0.05292,-0.0529 0.02646,-0.0794 0,-0.0265 -0.05292,-0.0529 -0.07938,-0.0265 0,0 0,0 0,0 l -0.396875,0.15875 0.370417,-0.44979 c 0.02646,-0.0265 0.02646,-0.0529 0,-0.0794 -0.02646,-0.0265 -0.05292,-0.0265 -0.07937,0 v 0 l -0.343959,0.42334 0.211667,-0.60854 c 0,-0.0265 0,-0.0529 -0.02646,-0.0794 -0.02646,0 -0.07937,0 -0.07937,0.0265 0,0 0,0 0,0 l -0.185209,0.58208 h -0.02646 l -0.05292,-0.635 c 0,-0.0265 -0.02646,-0.0529 -0.05292,-0.0529 0,0 0,0 0,0 -0.02646,0 -0.05292,0.0265 -0.05292,0.0529 0,0 0,0 0,0 l 0.05292,0.60854 c -0.185209,0.0265 -0.343959,0.1323 -0.423334,0.29105 -0.423333,0.58208 -0.767291,1.19062 -1.058333,1.85208 -0.132292,-0.52917 -0.05292,-2.19604 -0.05292,-2.19604 0,-0.50271 -0.02646,-0.92604 0.05292,-1.11125 0.105833,-0.18521 0.238125,-0.37042 0.423333,-0.50271 0.264584,-0.21167 1.719792,-1.79917 2.407709,-1.79917 0.687916,0 2.513541,1.64042 2.69875,1.77271 0.185208,0.13229 0.582083,0.71438 0.105833,-0.34396 z m -8.016875,5.97959 v 0 0 0.0265 z"
         id="path939"
         style="stroke-width:0.26458332" />
    </g>
    <g
       id="g947"
       transform="matrix(0.30222415,0,0,0.30222415,209.64561,199.09039)">
      <path
         style="stroke-width:0.26458332"
         id="path943"
         d="m 55.223527,305.60808 c 0.132291,0.0794 0.3175,0.0794 0.47625,0 0.502708,-0.42333 1.719791,-1.11125 2.169583,-1.56104 0.582083,-0.55562 0.238125,-0.87312 -0.423333,-0.44979 -0.47625,0.3175 -0.687917,0.71438 -1.5875,1.50813 0.185208,-0.3175 1.349375,-2.06375 1.481666,-2.9898 0.07937,-0.52916 -0.238125,-0.635 -0.608541,-0.15875 -0.449792,0.58209 -0.687917,1.98438 -1.11125,3.04271 0.449791,-1.53458 0.264583,-3.57187 0.211666,-3.96875 -0.07937,-0.74083 -0.423333,-0.87312 -0.661458,-0.0529 -0.211666,0.71437 -0.3175,1.71979 0.15875,3.9952 0.343958,0.89959 -1.27,-2.67229 -1.27,-2.67229 -0.264583,-0.34396 -0.608541,-0.52916 -0.555625,0.26459 0.05292,0.79375 0.740834,1.64041 1.640417,2.61937 -0.555625,-0.47625 -1.561042,-1.29646 -1.931458,-1.42875 -0.502709,-0.18521 -0.714375,0.10583 -0.3175,0.44979 0.529166,0.44979 2.143125,1.29646 2.328333,1.40229 z"
         inkscape:connector-curvature="0" />
      <path
         style="stroke-width:0.26458332"
         id="path945"
         d="m 61.599985,310.82037 c -0.47625,-1.05833 -2.248958,-2.64583 -2.831042,-2.51354 -0.582083,0.13229 -1.905,0.84667 -2.645833,1.34938 0.714375,-0.66146 1.322917,-1.42875 1.852083,-2.24896 0.05292,-0.10584 0.07938,-0.21167 0.07938,-0.3175 v 0 l 0.370417,-0.26459 c 0.02646,-0.0264 0.02646,-0.0794 0,-0.0794 -0.02646,-0.0265 -0.05292,-0.0265 -0.07937,0 l -0.3175,0.23812 c 0,-0.0264 0,-0.0264 0,-0.0529 l 0.3175,-0.50271 c 0.02646,-0.0265 0,-0.0794 -0.02646,-0.0794 -0.02646,0 -0.07938,0 -0.07938,0.0265 v 0 l -0.264584,0.44979 c -0.02646,-0.0264 -0.02646,-0.0264 -0.05292,-0.0529 l 0.185208,-0.58209 c 0,-0.0265 0,-0.0794 -0.02646,-0.0794 0,0 0,0 0,0 -0.02646,0 -0.05292,0 -0.07937,0.0265 l -0.185209,0.58208 h -0.02646 l -0.05292,-0.60854 c 0,-0.0265 -0.02646,-0.0529 -0.05292,-0.0529 0,0 0,0 0,0 -0.02646,0 -0.05292,0.0265 -0.05292,0.0529 0,0 0,0 0,0 l 0.05292,0.60854 c -0.185209,0.0265 -0.343959,0.13229 -0.47625,0.26458 -0.449792,0.68792 -0.846667,1.4023 -1.190625,2.14313 -0.105834,-0.66146 -0.07937,-3.175 -0.105834,-3.91583 -0.264583,0.0529 -0.529166,0.0529 -0.793749,0 0,0.635 0.105833,1.5875 0.105833,2.14312 -0.370417,-0.76729 -1.455208,-1.48167 -2.06375,-1.48167 -0.608542,0 -2.8575,2.75167 -3.227917,3.25438 -0.502708,0.71437 -0.608541,1.19062 0.15875,0.52917 0.529167,-0.4498 2.143125,-2.46063 2.804584,-2.40771 1.666875,0.10583 2.196041,2.40771 2.2225,2.88396 0.02646,0.66145 -0.02646,1.34937 -0.02646,1.66687 -0.449791,-1.03187 -0.47625,-1.61396 -1.005416,-2.43417 -0.07937,-0.10583 -0.15875,-0.21166 -0.264584,-0.29104 l 0.05292,-0.58208 c 0,-0.0265 -0.02646,-0.0529 -0.05292,-0.0794 -0.02646,0 -0.05292,0.0265 -0.07937,0.0529 l -0.05292,0.52917 c -0.05292,-0.0265 -0.07937,-0.0265 -0.132292,-0.0265 0,0 0,0 0,-0.0265 l -0.05292,-0.55562 c 0,-0.0265 -0.02646,-0.0529 -0.07937,-0.0529 0,0 0,0 0,0 -0.02646,0 -0.05292,0.0265 -0.05292,0.0794 l 0.07938,0.58209 c 0,0 0,0.0265 0.02646,0.0265 -0.02646,0 -0.02646,0.0265 -0.05292,0.0529 l -0.238125,-0.39687 c -0.02646,-0.0265 -0.05292,-0.0529 -0.07938,-0.0265 -0.02646,0.0265 -0.05292,0.0529 -0.02646,0.0794 0,0 0,0 0,0 l 0.264583,0.42334 c 0,0 0,0 0.02646,0.0265 0,0 0,0.0265 0,0.0265 l -0.343959,-0.26458 c -0.02646,-0.0265 -0.05292,-0.0265 -0.07937,0 -0.02646,0.0265 -0.02646,0.0529 0,0.0794 l 0.343959,0.26458 h 0.02646 c -0.02646,0.21167 0,0.39687 0.07937,0.58208 0.3175,0.82021 0.846667,1.32292 1.164167,1.87854 -0.846667,-0.71437 -1.957917,-1.27 -2.8575,-1.29645 -1.137709,0 -1.878542,0.92604 -2.513542,1.66687 -0.582083,0.68792 -0.3175,0.71438 0.291042,0.37042 0.47625,-0.29104 1.508125,-1.08479 2.037291,-1.08479 0.714375,0 1.931459,0.68791 2.248959,1.00541 0.555625,0.58209 1.005416,1.40229 1.11125,2.8575 -1.137709,-1.48166 -2.460625,-1.53458 -3.148542,-1.45521 -0.02646,0 -0.05292,0.0265 -0.02646,0.0529 0,0.0265 0.02646,0.0265 0.02646,0.0265 1.137708,0.39687 2.778125,1.29646 3.175,2.40771 -0.02646,0.76729 0.05292,1.56104 -0.05292,2.46062 -0.211666,-0.635 -0.529166,-1.24354 -0.926041,-1.79916 -0.07938,-0.10584 -0.15875,-0.18521 -0.264584,-0.23813 v 0 l 0.105834,-0.37042 c 0,-0.0265 0,-0.0794 -0.05292,-0.0794 -0.02646,0 -0.05292,0 -0.07937,0.0265 0,0 0,0 0,0 l -0.07937,0.23812 -0.05292,-0.29104 c 0,-0.0265 -0.05292,-0.0529 -0.07937,-0.0529 0,0 0,0 0,0 -0.02646,0 -0.05292,0.0529 -0.05292,0.0794 l 0.105833,0.37042 -0.291042,-0.39688 c -0.02646,-0.0265 -0.05292,-0.0265 -0.07938,0 -0.02646,0.0265 -0.02646,0.0529 -0.02646,0.0794 0,0 0,0 0,0 l 0.3175,0.42333 v 0 l -0.396875,-0.3175 c -0.02646,-0.0265 -0.05292,-0.0265 -0.07937,0 -0.02646,0.0265 -0.02646,0.0529 0,0.0794 0,0 0,0 0,0 l 0.449792,0.34396 c 0,0.13229 0,0.26459 0.05292,0.37042 0.211667,0.66146 0.3175,0.76729 1.27,2.06375 -0.423333,-0.42333 -1.74625,-1.95792 -2.566458,-1.905 -0.820208,0.0529 -1.481667,0.60854 -2.116667,1.53458 -0.555625,0.82021 0,0.44979 0.502709,0.10584 0.502708,-0.34396 0.661458,-0.635 1.5875,-0.74084 0.926041,-0.10583 2.645833,1.98438 2.751666,2.69875 0.105834,0.71438 -0.132291,2.80459 -0.238125,3.43959 0.449792,0.0529 1.27,-0.1323 1.666875,-0.21167 -0.05292,-0.42333 -0.211667,-1.37583 -0.264583,-2.03729 -0.05292,-0.66146 1.481666,-3.70417 2.248958,-3.70417 0.767292,0 1.375833,0.52917 2.010833,1.08479 0.820209,0.71438 0.926042,0.21167 0.449792,-0.3175 -0.47625,-0.52916 -1.5875,-1.5875 -2.196042,-1.5875 -0.608541,0 -2.248958,0.82021 -2.619375,2.24896 0.02646,-1.11125 0.05292,-2.2225 0.132292,-3.36021 0.05292,-0.71437 1.984375,-1.19062 2.645833,-1.16416 0.661459,0.0264 2.513542,1.64041 2.69875,1.79916 0.185209,0.15875 0.582084,0.60854 0.105834,-0.44979 -0.47625,-1.05833 -2.248959,-2.64583 -2.831042,-2.51354 -0.582083,0.13229 -1.905,0.84667 -2.645833,1.34937 0.608541,-0.58208 1.164166,-1.24354 1.5875,-1.95791 0.07937,-0.13229 0.105833,-0.26459 0.105833,-0.39688 l 0.449792,-0.18521 c 0.02646,-0.0265 0.05292,-0.0529 0.02646,-0.0794 0,-0.0265 -0.05292,-0.0529 -0.07938,-0.0265 0,0 0,0 0,0 l -0.396875,0.15875 0.370417,-0.44979 c 0.02646,-0.0265 0.02646,-0.0529 0,-0.0794 -0.02646,-0.0265 -0.05292,-0.0265 -0.07937,0 v 0 l -0.343959,0.42334 0.211667,-0.60854 c 0,-0.0265 0,-0.0529 -0.02646,-0.0794 -0.02646,0 -0.07937,0 -0.07937,0.0265 0,0 0,0 0,0 l -0.185209,0.58208 h -0.02646 l -0.05292,-0.635 c 0,-0.0265 -0.02646,-0.0529 -0.05292,-0.0529 0,0 0,0 0,0 -0.02646,0 -0.05292,0.0265 -0.05292,0.0529 0,0 0,0 0,0 l 0.05292,0.60854 c -0.185209,0.0265 -0.343959,0.1323 -0.423334,0.29105 -0.423333,0.58208 -0.767291,1.19062 -1.058333,1.85208 -0.132292,-0.52917 -0.05292,-2.19604 -0.05292,-2.19604 0,-0.50271 -0.02646,-0.92604 0.05292,-1.11125 0.105833,-0.18521 0.238125,-0.37042 0.423333,-0.50271 0.264584,-0.21167 1.719792,-1.79917 2.407709,-1.79917 0.687916,0 2.513541,1.64042 2.69875,1.77271 0.185208,0.13229 0.582083,0.71438 0.105833,-0.34396 z m -8.016875,5.97959 v 0 0 0.0265 z"
         inkscape:connector-curvature="0" />
    </g>
    <g
       transform="matrix(0.30222415,0,0,0.30222415,212.52182,199.09039)"
       id="g953">
      <path
         inkscape:connector-curvature="0"
         d="m 55.223527,305.60808 c 0.132291,0.0794 0.3175,0.0794 0.47625,0 0.502708,-0.42333 1.719791,-1.11125 2.169583,-1.56104 0.582083,-0.55562 0.238125,-0.87312 -0.423333,-0.44979 -0.47625,0.3175 -0.687917,0.71438 -1.5875,1.50813 0.185208,-0.3175 1.349375,-2.06375 1.481666,-2.9898 0.07937,-0.52916 -0.238125,-0.635 -0.608541,-0.15875 -0.449792,0.58209 -0.687917,1.98438 -1.11125,3.04271 0.449791,-1.53458 0.264583,-3.57187 0.211666,-3.96875 -0.07937,-0.74083 -0.423333,-0.87312 -0.661458,-0.0529 -0.211666,0.71437 -0.3175,1.71979 0.15875,3.9952 0.343958,0.89959 -1.27,-2.67229 -1.27,-2.67229 -0.264583,-0.34396 -0.608541,-0.52916 -0.555625,0.26459 0.05292,0.79375 0.740834,1.64041 1.640417,2.61937 -0.555625,-0.47625 -1.561042,-1.29646 -1.931458,-1.42875 -0.502709,-0.18521 -0.714375,0.10583 -0.3175,0.44979 0.529166,0.44979 2.143125,1.29646 2.328333,1.40229 z"
         id="path949"
         style="stroke-width:0.26458332" />
      <path
         inkscape:connector-curvature="0"
         d="m 61.599985,310.82037 c -0.47625,-1.05833 -2.248958,-2.64583 -2.831042,-2.51354 -0.582083,0.13229 -1.905,0.84667 -2.645833,1.34938 0.714375,-0.66146 1.322917,-1.42875 1.852083,-2.24896 0.05292,-0.10584 0.07938,-0.21167 0.07938,-0.3175 v 0 l 0.370417,-0.26459 c 0.02646,-0.0264 0.02646,-0.0794 0,-0.0794 -0.02646,-0.0265 -0.05292,-0.0265 -0.07937,0 l -0.3175,0.23812 c 0,-0.0264 0,-0.0264 0,-0.0529 l 0.3175,-0.50271 c 0.02646,-0.0265 0,-0.0794 -0.02646,-0.0794 -0.02646,0 -0.07938,0 -0.07938,0.0265 v 0 l -0.264584,0.44979 c -0.02646,-0.0264 -0.02646,-0.0264 -0.05292,-0.0529 l 0.185208,-0.58209 c 0,-0.0265 0,-0.0794 -0.02646,-0.0794 0,0 0,0 0,0 -0.02646,0 -0.05292,0 -0.07937,0.0265 l -0.185209,0.58208 h -0.02646 l -0.05292,-0.60854 c 0,-0.0265 -0.02646,-0.0529 -0.05292,-0.0529 0,0 0,0 0,0 -0.02646,0 -0.05292,0.0265 -0.05292,0.0529 0,0 0,0 0,0 l 0.05292,0.60854 c -0.185209,0.0265 -0.343959,0.13229 -0.47625,0.26458 -0.449792,0.68792 -0.846667,1.4023 -1.190625,2.14313 -0.105834,-0.66146 -0.07937,-3.175 -0.105834,-3.91583 -0.264583,0.0529 -0.529166,0.0529 -0.793749,0 0,0.635 0.105833,1.5875 0.105833,2.14312 -0.370417,-0.76729 -1.455208,-1.48167 -2.06375,-1.48167 -0.608542,0 -2.8575,2.75167 -3.227917,3.25438 -0.502708,0.71437 -0.608541,1.19062 0.15875,0.52917 0.529167,-0.4498 2.143125,-2.46063 2.804584,-2.40771 1.666875,0.10583 2.196041,2.40771 2.2225,2.88396 0.02646,0.66145 -0.02646,1.34937 -0.02646,1.66687 -0.449791,-1.03187 -0.47625,-1.61396 -1.005416,-2.43417 -0.07937,-0.10583 -0.15875,-0.21166 -0.264584,-0.29104 l 0.05292,-0.58208 c 0,-0.0265 -0.02646,-0.0529 -0.05292,-0.0794 -0.02646,0 -0.05292,0.0265 -0.07937,0.0529 l -0.05292,0.52917 c -0.05292,-0.0265 -0.07937,-0.0265 -0.132292,-0.0265 0,0 0,0 0,-0.0265 l -0.05292,-0.55562 c 0,-0.0265 -0.02646,-0.0529 -0.07937,-0.0529 0,0 0,0 0,0 -0.02646,0 -0.05292,0.0265 -0.05292,0.0794 l 0.07938,0.58209 c 0,0 0,0.0265 0.02646,0.0265 -0.02646,0 -0.02646,0.0265 -0.05292,0.0529 l -0.238125,-0.39687 c -0.02646,-0.0265 -0.05292,-0.0529 -0.07938,-0.0265 -0.02646,0.0265 -0.05292,0.0529 -0.02646,0.0794 0,0 0,0 0,0 l 0.264583,0.42334 c 0,0 0,0 0.02646,0.0265 0,0 0,0.0265 0,0.0265 l -0.343959,-0.26458 c -0.02646,-0.0265 -0.05292,-0.0265 -0.07937,0 -0.02646,0.0265 -0.02646,0.0529 0,0.0794 l 0.343959,0.26458 h 0.02646 c -0.02646,0.21167 0,0.39687 0.07937,0.58208 0.3175,0.82021 0.846667,1.32292 1.164167,1.87854 -0.846667,-0.71437 -1.957917,-1.27 -2.8575,-1.29645 -1.137709,0 -1.878542,0.92604 -2.513542,1.66687 -0.582083,0.68792 -0.3175,0.71438 0.291042,0.37042 0.47625,-0.29104 1.508125,-1.08479 2.037291,-1.08479 0.714375,0 1.931459,0.68791 2.248959,1.00541 0.555625,0.58209 1.005416,1.40229 1.11125,2.8575 -1.137709,-1.48166 -2.460625,-1.53458 -3.148542,-1.45521 -0.02646,0 -0.05292,0.0265 -0.02646,0.0529 0,0.0265 0.02646,0.0265 0.02646,0.0265 1.137708,0.39687 2.778125,1.29646 3.175,2.40771 -0.02646,0.76729 0.05292,1.56104 -0.05292,2.46062 -0.211666,-0.635 -0.529166,-1.24354 -0.926041,-1.79916 -0.07938,-0.10584 -0.15875,-0.18521 -0.264584,-0.23813 v 0 l 0.105834,-0.37042 c 0,-0.0265 0,-0.0794 -0.05292,-0.0794 -0.02646,0 -0.05292,0 -0.07937,0.0265 0,0 0,0 0,0 l -0.07937,0.23812 -0.05292,-0.29104 c 0,-0.0265 -0.05292,-0.0529 -0.07937,-0.0529 0,0 0,0 0,0 -0.02646,0 -0.05292,0.0529 -0.05292,0.0794 l 0.105833,0.37042 -0.291042,-0.39688 c -0.02646,-0.0265 -0.05292,-0.0265 -0.07938,0 -0.02646,0.0265 -0.02646,0.0529 -0.02646,0.0794 0,0 0,0 0,0 l 0.3175,0.42333 v 0 l -0.396875,-0.3175 c -0.02646,-0.0265 -0.05292,-0.0265 -0.07937,0 -0.02646,0.0265 -0.02646,0.0529 0,0.0794 0,0 0,0 0,0 l 0.449792,0.34396 c 0,0.13229 0,0.26459 0.05292,0.37042 0.211667,0.66146 0.3175,0.76729 1.27,2.06375 -0.423333,-0.42333 -1.74625,-1.95792 -2.566458,-1.905 -0.820208,0.0529 -1.481667,0.60854 -2.116667,1.53458 -0.555625,0.82021 0,0.44979 0.502709,0.10584 0.502708,-0.34396 0.661458,-0.635 1.5875,-0.74084 0.926041,-0.10583 2.645833,1.98438 2.751666,2.69875 0.105834,0.71438 -0.132291,2.80459 -0.238125,3.43959 0.449792,0.0529 1.27,-0.1323 1.666875,-0.21167 -0.05292,-0.42333 -0.211667,-1.37583 -0.264583,-2.03729 -0.05292,-0.66146 1.481666,-3.70417 2.248958,-3.70417 0.767292,0 1.375833,0.52917 2.010833,1.08479 0.820209,0.71438 0.926042,0.21167 0.449792,-0.3175 -0.47625,-0.52916 -1.5875,-1.5875 -2.196042,-1.5875 -0.608541,0 -2.248958,0.82021 -2.619375,2.24896 0.02646,-1.11125 0.05292,-2.2225 0.132292,-3.36021 0.05292,-0.71437 1.984375,-1.19062 2.645833,-1.16416 0.661459,0.0264 2.513542,1.64041 2.69875,1.79916 0.185209,0.15875 0.582084,0.60854 0.105834,-0.44979 -0.47625,-1.05833 -2.248959,-2.64583 -2.831042,-2.51354 -0.582083,0.13229 -1.905,0.84667 -2.645833,1.34937 0.608541,-0.58208 1.164166,-1.24354 1.5875,-1.95791 0.07937,-0.13229 0.105833,-0.26459 0.105833,-0.39688 l 0.449792,-0.18521 c 0.02646,-0.0265 0.05292,-0.0529 0.02646,-0.0794 0,-0.0265 -0.05292,-0.0529 -0.07938,-0.0265 0,0 0,0 0,0 l -0.396875,0.15875 0.370417,-0.44979 c 0.02646,-0.0265 0.02646,-0.0529 0,-0.0794 -0.02646,-0.0265 -0.05292,-0.0265 -0.07937,0 v 0 l -0.343959,0.42334 0.211667,-0.60854 c 0,-0.0265 0,-0.0529 -0.02646,-0.0794 -0.02646,0 -0.07937,0 -0.07937,0.0265 0,0 0,0 0,0 l -0.185209,0.58208 h -0.02646 l -0.05292,-0.635 c 0,-0.0265 -0.02646,-0.0529 -0.05292,-0.0529 0,0 0,0 0,0 -0.02646,0 -0.05292,0.0265 -0.05292,0.0529 0,0 0,0 0,0 l 0.05292,0.60854 c -0.185209,0.0265 -0.343959,0.1323 -0.423334,0.29105 -0.423333,0.58208 -0.767291,1.19062 -1.058333,1.85208 -0.132292,-0.52917 -0.05292,-2.19604 -0.05292,-2.19604 0,-0.50271 -0.02646,-0.92604 0.05292,-1.11125 0.105833,-0.18521 0.238125,-0.37042 0.423333,-0.50271 0.264584,-0.21167 1.719792,-1.79917 2.407709,-1.79917 0.687916,0 2.513541,1.64042 2.69875,1.77271 0.185208,0.13229 0.582083,0.71438 0.105833,-0.34396 z m -8.016875,5.97959 v 0 0 0.0265 z"
         id="path951"
         style="stroke-width:0.26458332" />
    </g>
    <g
       style="clip-rule:evenodd;fill-rule:evenodd;image-rendering:optimizeQuality;shape-rendering:geometricPrecision;text-rendering:geometricPrecision"
       id="g845"
       transform="matrix(0.10244077,0.001333,-0.00129874,0.09980751,232.17982,253.84489)">
      <path
         style="fill:#000000"
         inkscape:connector-curvature="0"
         class="fil0"
         d="M 32,140 C 31,80 94,41 146,69 c 16,-32 53,-48 88,-39 40,-51 121,-34 135,31 122,15 70,200 -51,141 -15,17 -88,21 -98,-15 -8,29 -47,36 -65,12 -28,20 -67,20 -94,-2 -59,39 -87,-51 -29,-57 z"
         id="path843" />
    </g>
    <g
       transform="matrix(0.11006852,0,0,0.10667115,48.392572,252.25536)"
       id="g849"
       style="clip-rule:evenodd;fill-rule:evenodd;image-rendering:optimizeQuality;shape-rendering:geometricPrecision;text-rendering:geometricPrecision">
      <path
         id="path847"
         d="M 32,140 C 31,80 94,41 146,69 c 16,-32 53,-48 88,-39 40,-51 121,-34 135,31 122,15 70,200 -51,141 -15,17 -88,21 -98,-15 -8,29 -47,36 -65,12 -28,20 -67,20 -94,-2 -59,39 -87,-51 -29,-57 z"
         class="fil0"
         inkscape:connector-curvature="0"
         style="fill:#000000" />
    </g>
    <path
       style="fill:#000000;stroke-width:0.07457851"
       inkscape:connector-curvature="0"
       d="m 264.44597,296.97301 1.73354,-2.00593 0.73272,0.42997 -1.0096,0.6943 c -0.10038,0.0696 -0.13501,0.2057 -0.0752,0.31515 0.0641,0.11721 0.211,0.16027 0.32815,0.0963 l 1.54702,-0.84536 c 0.0399,-0.022 0.0771,-0.0537 0.1056,-0.0929 0.10399,-0.14313 0.0722,-0.34361 -0.0709,-0.44762 l -0.0269,-0.0194 -0.90573,-0.65788 0.87467,-0.96321 c 0.01,-0.01 0.0194,-0.0226 0.029,-0.0348 l 0.57139,0.68479 c 0.0626,0.0753 0.16229,0.10892 0.25774,0.0874 l 1.24806,-0.28106 c 0.14065,-0.0317 0.22897,-0.17136 0.1973,-0.312 -0.0316,-0.14065 -0.17134,-0.22897 -0.31199,-0.1973 l -1.09243,0.24602 -0.54345,-0.6514 c -0.0128,-0.016 -0.0281,-0.03 -0.0447,-0.0423 l -0.21474,-0.15957 c -0.004,-0.009 -0.007,-0.0163 -0.0114,-0.0241 0.0455,0.002 0.0918,-0.002 0.13835,-0.0127 0.29612,-0.0667 0.48207,-0.36083 0.4154,-0.65687 -0.0667,-0.29613 -0.36078,-0.48217 -0.65689,-0.41549 -0.29612,0.0667 -0.4821,0.36077 -0.41539,0.65696 0.006,0.0261 0.0131,0.0512 0.0232,0.0754 l -0.18822,-0.13987 c -0.0253,-0.0188 -0.0537,-0.0328 -0.0841,-0.0415 l -0.90206,-0.2576 c -0.0713,-0.0204 -0.14806,-0.009 -0.21072,0.03 l -1.13485,0.71424 c -0.12199,0.0767 -0.15863,0.23792 -0.0819,0.35992 0.0767,0.122 0.23785,0.15865 0.35992,0.0818 l 1.03621,-0.65218 0.68466,0.19555 c -0.003,0.003 -0.005,0.007 -0.008,0.011 l -0.92846,1.38116 c -0.011,0.0161 -0.019,0.0333 -0.0278,0.0504 -0.004,0.003 -0.007,0.008 -0.0103,0.0126 l -1.70992,2.49385 c -0.0688,0.10019 -0.0529,0.23842 0.0418,0.31973 0.10102,0.0874 0.25375,0.0762 0.34107,-0.0248 z"
       id="path842"
       inkscape:transform-center-x="0.46772168"
       inkscape:transform-center-y="0.37417734" />
    <g
       transform="matrix(0.10244077,0.001333,-0.00129874,0.09980751,269.75089,253.84489)"
       id="g851"
       style="clip-rule:evenodd;fill-rule:evenodd;image-rendering:optimizeQuality;shape-rendering:geometricPrecision;text-rendering:geometricPrecision">
      <path
         id="path849"
         d="M 32,140 C 31,80 94,41 146,69 c 16,-32 53,-48 88,-39 40,-51 121,-34 135,31 122,15 70,200 -51,141 -15,17 -88,21 -98,-15 -8,29 -47,36 -65,12 -28,20 -67,20 -94,-2 -59,39 -87,-51 -29,-57 z"
         class="fil0"
         inkscape:connector-curvature="0"
         style="fill:#000000" />
    </g>
    <g
       style="clip-rule:evenodd;fill-rule:evenodd;image-rendering:optimizeQuality;shape-rendering:geometricPrecision;text-rendering:geometricPrecision"
       id="g855"
       transform="matrix(0.10194605,0.01014357,-0.00988283,0.0993255,292.48509,251.44024)">
      <path
         style="fill:#000000"
         inkscape:connector-curvature="0"
         class="fil0"
         d="M 32,140 C 31,80 94,41 146,69 c 16,-32 53,-48 88,-39 40,-51 121,-34 135,31 122,15 70,200 -51,141 -15,17 -88,21 -98,-15 -8,29 -47,36 -65,12 -28,20 -67,20 -94,-2 -59,39 -87,-51 -29,-57 z"
         id="path853" />
    </g>
    <g
       style="clip-rule:evenodd;fill-rule:evenodd;image-rendering:optimizeQuality;shape-rendering:geometricPrecision;text-rendering:geometricPrecision"
       id="g859"
       transform="matrix(0.11006852,0,0,0.10667115,2.8842142,252.25536)">
      <path
         style="fill:#000000"
         inkscape:connector-curvature="0"
         class="fil0"
         d="M 32,140 C 31,80 94,41 146,69 c 16,-32 53,-48 88,-39 40,-51 121,-34 135,31 122,15 70,200 -51,141 -15,17 -88,21 -98,-15 -8,29 -47,36 -65,12 -28,20 -67,20 -94,-2 -59,39 -87,-51 -29,-57 z"
         id="path857" />
    </g>
    <g
       transform="matrix(0.11006852,0,0,0.10667115,-26.74913,251.72619)"
       id="g863"
       style="clip-rule:evenodd;fill-rule:evenodd;image-rendering:optimizeQuality;shape-rendering:geometricPrecision;text-rendering:geometricPrecision">
      <path
         id="path861"
         d="M 32,140 C 31,80 94,41 146,69 c 16,-32 53,-48 88,-39 40,-51 121,-34 135,31 122,15 70,200 -51,141 -15,17 -88,21 -98,-15 -8,29 -47,36 -65,12 -28,20 -67,20 -94,-2 -59,39 -87,-51 -29,-57 z"
         class="fil0"
         inkscape:connector-curvature="0"
         style="fill:#000000" />
    </g>
  </g>
</svg>
