<svg xmlns="http://www.w3.org/2000/svg" xmlns:xlink="http://www.w3.org/1999/xlink" xmlns:fi="http://pattern.flaticon.com/" x="0" y="0" width="800" height="400" viewBox="0 0 1866.6666666666667 933.3333333333334"><rect x="0px" y="0px" width="100%" height="100%" opacity="1" fill="#ffffff"/><defs><g transform="matrix(0.13671875 0 0 0.13671875 -31 140.00000175404693)" id="L1_262"><path d="m97.334 83.941a4.983 4.983 0 0 0 3.137-1.108c3.8-3.066 7.744-6.038 11.72-8.833a5 5 0 1 0 -5.75-8.182c-4.156 2.922-8.279 6.028-12.25 9.232a5 5 0 0 0 3.143 8.891z" fill="#ebebeb"/><path d="m26.262 178.669a4.993 4.993 0 0 0 6.449-2.9 217.673 217.673 0 0 1 50.445-77.415 5 5 0 1 0 -7.051-7.091 227.617 227.617 0 0 0 -52.742 80.956 5 5 0 0 0 2.899 6.45z" fill="#ebebeb"/><path d="m435.979 363.612a5 5 0 0 0 -6.858 1.724c-3.377 5.644-7.062 11.214-10.959 16.556a5 5 0 0 0 8.08 5.892c4.074-5.586 7.93-11.411 11.461-17.314a5 5 0 0 0 -1.724-6.858z" fill="#ebebeb"/><path d="m460.7 317.829a227.875 227.875 0 0 0 7.365-35.547 232.72 232.72 0 0 0 1.792-28.809 5 5 0 0 0 -10 0 222.813 222.813 0 0 1 -1.713 27.567 218.46 218.46 0 0 1 -7.041 33.984c-1.967 6.734-4.291 13.445-6.905 19.946-1.605 3.994-3.349 7.984-5.185 11.858a5 5 0 1 0 9.037 4.28c1.92-4.054 3.746-8.229 5.426-12.408 2.733-6.8 5.163-13.825 7.224-20.871z" fill="#ebebeb"/><path d="m131.916 62.6a5.92 5.92 0 1 0 -5.926-5.919 5.928 5.928 0 0 0 5.926 5.919z" fill="#ebebeb"/><path d="m405.664 397.45a5.92 5.92 0 1 0 5.926 5.92 5.929 5.929 0 0 0 -5.926-5.92z" fill="#ebebeb"/><path d="m60.641 341.6c-20.1 41.934-16.866 58.952-10.221 65.81 11.838 12.217 43.8 3.191 59.875-2.894a197.909 197.909 0 0 1 -49.654-62.916z" fill="#ebebeb"/><path d="m166.018 367.573a23.076 23.076 0 0 0 -3.131-5.5l-22.43-29.241a30.788 30.788 0 0 1 -5.25-10.513l-7.4-26.556a23 23 0 0 0 -16.09-15.922l-1.617-.441a25.8 25.8 0 0 1 -10.844-6.041l-13.805-12.921a36.1 36.1 0 0 1 -6.474-8.092 25.844 25.844 0 0 0 -27.209-12.288l-1.317.258c-.3 4.348-.469 8.733-.469 13.157a186.6 186.6 0 0 0 70.559 146.518c14.416-7.514 29.887-18.912 45.477-32.418z" fill="#ebebeb"/><path d="m173.812 360.656c20.766-18.846 41.454-40.9 59.858-61.992l-2.311-2.7c-.877-1.024-1.718-2.1-2.507-3.188l-10.11-14.013c-4.916-6.815-12.328-10.766-19.947-10.57a10.123 10.123 0 0 1 -5.432-1.421l-20.663-12.332a15.175 15.175 0 0 0 -14.832-.358l-10.887 5.8a26.569 26.569 0 0 1 -34.742-9.1l-10.576-16.6a27.744 27.744 0 0 1 .475-30.557 30.916 30.916 0 0 1 29.58-13.3l15.859 2a9.242 9.242 0 0 0 9.229-4.317 30.07 30.07 0 0 1 29.789-14.631l6.935.882a9.148 9.148 0 0 0 8.332-3.437l6.112-7.885a15.452 15.452 0 0 0 .466-18.389l-13.175-18.894a56.173 56.173 0 0 0 -17.713-16.308 66.233 66.233 0 0 1 -6.291-4.16l-22.572-16.876c-52.191 28.383-89.533 80.5-97.232 141.66a35.853 35.853 0 0 1 36.143 17.313 26.135 26.135 0 0 0 4.685 5.854l13.807 12.921a15.783 15.783 0 0 0 6.629 3.692l1.613.438a33.04 33.04 0 0 1 23.1 22.888l7.4 26.555a20.822 20.822 0 0 0 3.553 7.113l22.429 29.241a33.317 33.317 0 0 1 2.996 4.671z" fill="#ebebeb"/><path d="m301.277 129.2a17.635 17.635 0 0 0 -12.293 5.781l-32.591 35.279 19.087 17.16a28.723 28.723 0 0 0 38.926-.582 198.887 198.887 0 0 1 19.871-45.9 27.781 27.781 0 0 1 -20.218-7.136 17.639 17.639 0 0 0 -12.782-4.602z" fill="#ebebeb"/><path d="m238.961 289.464 1.324 1.548c25.565-29.848 45.85-56.65 54.319-68.083.013-.064.017-.128.033-.192a5 5 0 0 1 3.592-3.642l24.515-6.41-9.9-9.011a5 5 0 0 1 -1.534-2.72 38.883 38.883 0 0 1 -16.705 3.771 38.487 38.487 0 0 1 -25.814-9.871l-22.857-20.548a5 5 0 0 1 -.331-7.112l36.006-38.973a27.75 27.75 0 0 1 39.178-1.812 17.816 17.816 0 0 0 21.791 1.628 201.932 201.932 0 0 1 16.229-20.319 190.014 190.014 0 0 0 -200.155-24.443l18.59 13.9a56.236 56.236 0 0 0 5.338 3.53 66.254 66.254 0 0 1 20.887 19.231l13.176 18.895a25.41 25.41 0 0 1 -.766 30.235l-6.111 7.885a19.175 19.175 0 0 1 -17.5 7.23l-6.936-.882a20.081 20.081 0 0 0 -19.9 9.761 19.218 19.218 0 0 1 -19.114 9.188l-15.859-2a20.95 20.95 0 0 0 -20.061 9.01 17.753 17.753 0 0 0 -.306 19.555l10.576 16.6a16.521 16.521 0 0 0 21.607 5.642l10.887-5.8a25.231 25.231 0 0 1 24.656.6l20.662 12.328c10.918-.26 21.516 5.23 28.368 14.729l10.109 14.01c.635.868 1.307 1.724 2.006 2.542z" fill="#ebebeb"/><path d="m419.168 218.217a197.331 197.331 0 0 1 -43.453 23.6 28.724 28.724 0 0 0 2.685 39.291l18.871 17.4 32.047-35.724a17.776 17.776 0 0 0 -1.152-25.1 27.786 27.786 0 0 1 -8.998-19.467z" fill="#ebebeb"/><path d="m340.961 229.268-9.395-8.553-21.892 5.724 26.982 24.564z" fill="#ebebeb"/><path d="m307.191 250.211a8.8 8.8 0 0 0 -2.191.38 8.949 8.949 0 0 0 -6.252 7.821l-.869 11.363 11.234-1.929a8.887 8.887 0 0 0 -1.5-17.645c-.138-.001-.279-.001-.422.01z" fill="#ebebeb"/><path d="m401.332 308.958a5 5 0 0 1 -3.484 1.656c-.08 0-.159.006-.239.006a5 5 0 0 1 -3.388-1.324l-22.6-20.832a38.757 38.757 0 0 1 -9.957-42.029 5 5 0 0 1 -3.27-1.294l-8.8-8.011-4.854 24.5a4.987 4.987 0 0 1 -2.348 3.313c-20.5 36.007-72.017 112.087-165.343 166.255a190.333 190.333 0 0 0 191.797-40.708 186.971 186.971 0 0 0 57.535-109.456z" fill="#ebebeb"/><path d="m411.426 122.435a19.081 19.081 0 1 0 14.105 31.924 19.075 19.075 0 0 0 -14.105-31.924z" fill="#ebebeb"/><path d="m491.869 53.138a189.113 189.113 0 0 0 -31.412 4.972 78.159 78.159 0 0 0 29.381 26.648 188.581 188.581 0 0 0 2.031-31.62z" fill="#ebebeb"/><path d="m488.018 95.024a88.169 88.169 0 0 1 -37.625-34.138 187.958 187.958 0 0 0 -67.282 37.16 190.67 190.67 0 0 0 -61.373 100.2l41.246 37.548a188.628 188.628 0 0 0 125.034-140.77zm-75.237 75.54c-.467.022-.931.033-1.4.033a29.138 29.138 0 1 1 1.4-.033z" fill="#ebebeb"/><path d="m333.014 261.211-7.014-6.387a19.035 19.035 0 0 1 .475 3.379 18.865 18.865 0 0 1 -15.664 19.5l-17.559 3.014a4.924 4.924 0 0 1 -.846.073 5 5 0 0 1 -4.986-5.382l1.359-17.76a18.879 18.879 0 0 1 17.944-17.425 19.112 19.112 0 0 1 3.408.156l-9.563-8.706c-12.394 16.619-38.425 50.515-69.308 84.894-42.942 47.8-79.653 79.369-109.115 93.828-.393.192-28.2 13.1-52.338 13.1-10.293 0-19.914-2.346-26.465-9.027-7.84-8-9.945-20.427-6.276-37.572-22.14 40.78-20.296 60.704-13.277 70.424 15.123 20.953 65.781 11.175 84.24 5.584 131.2-49.354 200.071-148.334 224.985-191.693zm-129.549 127.889q-1.429 1.14-2.877 2.274a5 5 0 1 1 -6.17-7.869q1.414-1.108 2.812-2.224a5 5 0 1 1 6.235 7.819zm28.34-24.631c-4.93 4.661-10.026 9.263-15.143 13.679a5 5 0 0 1 -6.533-7.571c5-4.317 9.984-8.817 14.805-13.374a5 5 0 0 1 6.871 7.266zm9.232-11.093a5 5 0 0 1 -3.576-8.5c9.57-9.791 18.846-20.191 27.564-30.909a5 5 0 0 1 7.758 6.31c-8.91 10.953-18.388 21.581-28.172 31.589a4.981 4.981 0 0 1 -3.574 1.513z" fill="#ebebeb"/><path d="m344 480.866a7.012 7.012 0 1 0 7.012 7.011 7.021 7.021 0 0 0 -7.012-7.011z" fill="#ebebeb"/><path d="m356.072 451.692a10.03 10.03 0 1 0 10.032 10.03 10.042 10.042 0 0 0 -10.032-10.03z" fill="#ebebeb"/><path d="m33.184 47.26a7.013 7.013 0 1 0 7.016-7.012 7.02 7.02 0 0 0 -7.016 7.012z" fill="#ebebeb"/><circle cx="52" cy="21" r="10" fill="#ebebeb"/><path d="m154.391 30.876a18.987 18.987 0 0 1 11.929 11.97 5 5 0 0 0 9.491 0 18.983 18.983 0 0 1 11.929-11.97 5 5 0 0 0 0-9.484 18.979 18.979 0 0 1 -11.929-11.969 5 5 0 0 0 -9.491 0 18.984 18.984 0 0 1 -11.929 11.969 5 5 0 0 0 0 9.484z" fill="#ebebeb"/><path d="m237.033 481.124a18.983 18.983 0 0 1 -11.929-11.97 5 5 0 0 0 -9.491 0 18.987 18.987 0 0 1 -11.929 11.97 5 5 0 0 0 0 9.484 18.984 18.984 0 0 1 11.929 11.969 5 5 0 0 0 9.491 0 18.979 18.979 0 0 1 11.929-11.969 5 5 0 0 0 0-9.484z" fill="#ebebeb"/><path d="m489.533 428.812a18.979 18.979 0 0 1 -11.933-11.969 5 5 0 0 0 -9.491 0 18.984 18.984 0 0 1 -11.929 11.969 5 5 0 0 0 0 9.485 18.984 18.984 0 0 1 11.929 11.969 5 5 0 0 0 9.491 0 18.979 18.979 0 0 1 11.933-11.966 5 5 0 0 0 0-9.485z" fill="#ebebeb"/></g><g transform="matrix(0.1297893226146698 0 0 0.1297893226146698 63.91149974463565 235.057888177623)" id="L1_264"><path d="m380.31 111.841 17.18-11.915 13.759 19.839a5 5 0 1 0 8.217-5.7l-13.759-19.838 11.949-8.288 10.29 14.837a5 5 0 0 0 8.217-5.7l-10.29-14.836 11.95-8.287 6.82 9.833a5 5 0 1 0 8.217-5.7l-6.82-9.833 7.817-5.421a5 5 0 0 0 -5.7-8.217l-7.816 5.421-6.382-9.2a5 5 0 0 0 -8.217 5.7l6.382 9.2-11.949 8.287-9.853-14.206a5 5 0 0 0 -8.217 5.7l9.853 14.206-11.95 8.288-13.323-19.211a5 5 0 1 0 -8.216 5.7l13.322 19.209-17.18 11.915z" fill="#ebebeb"/><path d="m176.256 319.208 7.396 27.175 43.865-30.422-8.039-29.535z" fill="#ebebeb"/><path d="m102.983 311.311a14.512 14.512 0 0 0 11.062-2.637l63.393-46.562-14.226-20.512-65.824 43.057a14.619 14.619 0 0 0 5.595 26.654z" fill="#ebebeb"/><path d="m284.53 268.987a27.088 27.088 0 0 0 -4.426-20.4l-3.7-5.339-22.765 17.265 17.943 3.247a5 5 0 1 1 -1.78 9.84l-21.361-3.865 7.909 28.513 16.891-11.715a27.094 27.094 0 0 0 11.289-17.546z" fill="#ebebeb"/><path d="m246.491 385.678-7.243-26.613-43.864 30.422 7.243 26.613z" fill="#ebebeb"/><path d="m186.438 356.62 6.159 22.63 43.865-30.422-6.159-22.63z" fill="#ebebeb"/><path d="m173.762 181.951-14.705-21.2-60.229 41.769a30.188 30.188 0 0 0 -11.491 34.08z" fill="#ebebeb"/><path d="m272.757 394.831-34.1-122.95-10.586 8.029 29 106.55a5 5 0 0 1 -1.975 5.422l-52.586 36.468a5 5 0 0 1 -7.674-2.8l-27.171-99.831-10.49 7.956 32.872 118.525z" fill="#ebebeb"/><path d="m391.234 136.38-35.341-50.956-25.325 12.524 40.06 57.762z" fill="#ebebeb"/><path d="m356.373 152.704-27.985-40.351-24.474 11.984 32.658 47.09z" fill="#ebebeb"/><path d="m98.578 345.992a50.112 50.112 0 0 0 38.46-9.59l197.762-149.99-6.279-9.053-39.87 27.652a5 5 0 1 1 -5.7-8.216l39.87-27.653-5.944-8.57-59.855 41.512a5 5 0 1 1 -5.7-8.217l59.855-41.512-5.944-8.571-39.87 27.652a5 5 0 1 1 -5.7-8.217l39.87-27.652-10.277-14.817-209.786 132.659a50.544 50.544 0 0 0 19.108 92.583zm88.287-124.733a22.164 22.164 0 0 1 40.055-8.653 22.227 22.227 0 0 1 -5.54 30.9 21.994 21.994 0 0 1 -12.574 3.934 22.273 22.273 0 0 1 -21.941-26.185zm-105.639 70.921a24.428 24.428 0 0 1 10.688-15.892l69.9-45.72a5 5 0 0 1 6.845 1.335l19.772 28.509a5 5 0 0 1 -1.148 6.88l-67.316 49.442a24.4 24.4 0 0 1 -14.509 4.784 24.979 24.979 0 0 1 -4.119-.344 24.618 24.618 0 0 1 -20.11-28.994z" fill="#ebebeb"/><path d="m215.681 235.293a12.258 12.258 0 0 0 -7.067-22.273 12.12 12.12 0 0 0 -11.9 10 12.252 12.252 0 0 0 18.972 12.274z" fill="#ebebeb"/><path d="m151.923 422.905-13.623-49.105a5 5 0 0 0 -9.636 2.673l13.62 49.106a5 5 0 0 0 9.636-2.673z" fill="#ebebeb"/><path d="m152.293 461.652a5 5 0 0 0 9.635-2.673l-4.812-17.35a5 5 0 1 0 -9.636 2.672z" fill="#ebebeb"/></g><g transform="matrix(0.17578125 0 0 0.17578125 216.5 220.4999957496252)" id="L1_265"><path d="m28.069 404.337-2.634 1.663a5 5 0 1 0 5.341 8.454l2.635-1.664a5 5 0 1 0 -5.342-8.455z" fill="#ebebeb"/><path d="m60.1 384.107-15.461 9.765a5 5 0 1 0 5.339 8.455l15.461-9.765a5 5 0 1 0 -5.339-8.455z" fill="#ebebeb"/><path d="m247 486.913a5 5 0 0 0 -5 5v2.633a5 5 0 1 0 10 0v-2.633a5 5 0 0 0 -5-5z" fill="#ebebeb"/><path d="m357.2 460.431a5 5 0 1 0 -8.728 4.879l2.541 4.546a5 5 0 1 0 8.728-4.878z" fill="#ebebeb"/><path d="m307.289 14.479a5 5 0 0 0 -6.042 3.673l-4.216 17.285a5 5 0 1 0 9.715 2.369l4.216-17.285a5 5 0 0 0 -3.673-6.042z" fill="#ebebeb"/><path d="m124.578 486.626a5 5 0 0 0 -6.9 1.543l-3.09 4.869a5 5 0 1 0 8.443 5.358l3.09-4.869a5 5 0 0 0 -1.543-6.901z" fill="#ebebeb"/><path d="m140.154 462.084a5 5 0 0 0 -6.9 1.543l-5.6 8.829a5 5 0 1 0 8.444 5.358l5.6-8.829a5 5 0 0 0 -1.544-6.901z" fill="#ebebeb"/><path d="m72.675 65.532a5 5 0 0 0 -.3 7.065l6.212 6.76a5 5 0 1 0 7.363-6.765l-6.212-6.761a5 5 0 0 0 -7.063-.299z" fill="#ebebeb"/><path d="m92.533 87.144a5 5 0 0 0 -.3 7.064l14.75 16.052a5 5 0 0 0 7.364-6.767l-14.747-16.051a5 5 0 0 0 -7.067-.298z" fill="#ebebeb"/><path d="m25.381 180.873a5 5 0 0 0 1.9-9.627l-9.381-3.846a5 5 0 0 0 -3.794 9.252l9.381 3.85a5 5 0 0 0 1.894.371z" fill="#ebebeb"/><path d="m45.382 178.672a5 5 0 1 0 -3.795 9.252l12.213 5.011a5 5 0 0 0 3.8-9.252z" fill="#ebebeb"/><path d="m186.919 11.407a5 5 0 0 0 -3.768 5.984l10.179 44.788a5 5 0 0 0 9.752-2.216l-10.182-44.788a5 5 0 0 0 -5.981-3.768z" fill="#ebebeb"/><path d="m27.192 294.083a4.919 4.919 0 0 0 .626-.04l16.282-2.035a5 5 0 0 0 -1.24-9.923l-16.286 2.036a5 5 0 0 0 .614 9.962z" fill="#ebebeb"/><path d="m449.241 235.3a36.1 36.1 0 0 1 36.059-36.06c1.016 0 2.026.049 3.031.133a133.809 133.809 0 0 0 -70.685-66.773 34.672 34.672 0 0 1 -68.473-7.727c0-.189.012-.378.015-.567-63.648 9.038-112.935 63.285-114.2 129.09a36.05 36.05 0 1 1 17.965 69.352 133.1 133.1 0 0 0 115.028 66.275c69.3 0 126.387-53.274 132.477-121.019a36.046 36.046 0 0 1 -51.212-32.71zm-157.348-44.862a18.8 18.8 0 1 1 18.8 18.8 18.823 18.823 0 0 1 -18.8-18.8zm33.985 158.377a10 10 0 1 1 10-10 10.011 10.011 0 0 1 -10 10zm52.449-70.562a25.014 25.014 0 1 1 25.014-25.014 25.042 25.042 0 0 1 -25.014 25.014zm50.38 84.2a18.8 18.8 0 1 1 18.8-18.8 18.824 18.824 0 0 1 -18.8 18.796z" fill="#ebebeb"/><path d="m359.23 123.269c-.034.535-.057 1.07-.057 1.606a24.673 24.673 0 0 0 48.968 4.3 132.559 132.559 0 0 0 -40.165-6.2c-2.939 0-5.853.106-8.746.294z" fill="#ebebeb"/><path d="m428.707 334.844a8.8 8.8 0 1 0 8.8 8.8 8.813 8.813 0 0 0 -8.8-8.8z" fill="#ebebeb"/><path d="m310.694 181.635a8.8 8.8 0 1 0 8.8 8.8 8.812 8.812 0 0 0 -8.8-8.8z" fill="#ebebeb"/><path d="m485.3 209.24a26.056 26.056 0 0 0 0 52.112c5.7 0 10.7-1.866 15.7-5.275v-.077a132.411 132.411 0 0 0 -8.059-45.616 25.985 25.985 0 0 0 -7.641-1.144z" fill="#ebebeb"/><path d="m273.949 287.056a26.036 26.036 0 0 0 -38.732-22.751 132.026 132.026 0 0 0 12.633 48.805h.044a26.084 26.084 0 0 0 26.055-26.054z" fill="#ebebeb"/><path d="m271.887 150.15a117.155 117.155 0 1 0 -24.822 231.65 116.3 116.3 0 0 0 40.873-7.324 143.048 143.048 0 0 1 -62.816-111.5 5 5 0 0 1 -.083-2.194c-.053-1.589-.089-3.182-.089-4.783a142.69 142.69 0 0 1 46.937-105.849z" fill="#ebebeb"/><path d="m298.479 380.966a127.158 127.158 0 1 1 -51.414-243.466 127.328 127.328 0 0 1 34.353 4.719 143.012 143.012 0 0 1 32.633-18.683 50.131 50.131 0 0 1 -23.139-41.106 50.223 50.223 0 0 1 -87.693 0 50.474 50.474 0 0 1 -27.153 43.422 49.2 49.2 0 0 1 -50.53-2.4 50.721 50.721 0 0 1 -3.989 51.224 49.378 49.378 0 0 1 -45.9 21.484 50.875 50.875 0 0 1 -10.6 87.757 50.8 50.8 0 0 1 31.158 82.636 49.237 49.237 0 0 1 49.627 9.8 50.632 50.632 0 0 1 16.068 48.759 50.262 50.262 0 0 1 85.157 21.116 50.263 50.263 0 0 1 85.156-21.118 50.482 50.482 0 0 1 2.627-29.966 142.07 142.07 0 0 1 -36.361-14.178z" fill="#ebebeb"/><path d="m378.327 238.226a15.014 15.014 0 1 0 15.014 15.013 15.031 15.031 0 0 0 -15.014-15.013z" fill="#ebebeb"/></g><g transform="matrix(0.04277435317635536 0 0 0.04277435317635536 248.0283875670284 -5.751128708875797)" id="L1_267"><path d="M312.522,12.937,308.214,30.6a5,5,0,1,0,9.715,2.369l4.309-17.665a5,5,0,0,0-9.716-2.369Z" fill="#ebebeb"/><path d="M484.875,283h-3.837a5,5,0,0,0,0,10h3.837a5,5,0,0,0,0-10Z" fill="#ebebeb"/><path d="M446.488,46.477l-3.912,3.912a5,5,0,1,0,7.071,7.071l3.912-3.912a5,5,0,0,0-7.071-7.071Z" fill="#ebebeb"/><path d="M33.277,407.7l-2.693,1.7a5,5,0,1,0,5.341,8.454l2.693-1.7a5,5,0,1,0-5.341-8.454Z" fill="#ebebeb"/><path d="M66.015,387.023,50.213,397a5,5,0,1,0,5.339,8.455l15.8-9.98a5,5,0,0,0-5.34-8.456Z" fill="#ebebeb"/><path d="M257,492.112a5,5,0,0,0-5,5V499.8a5,5,0,0,0,10,0v-2.691A5,5,0,0,0,257,492.112Z" fill="#ebebeb"/><path d="M369.505,464.991a5,5,0,1,0-8.729,4.878l2.6,4.646a5,5,0,1,0,8.73-4.878Z" fill="#ebebeb"/><path d="M131.795,491.8a5,5,0,0,0-6.9,1.542l-3.158,4.977a5,5,0,1,0,8.443,5.358l3.158-4.976A5,5,0,0,0,131.795,491.8Z" fill="#ebebeb"/><path d="M147.713,466.719a5,5,0,0,0-6.9,1.543l-5.727,9.023a5,5,0,1,0,8.444,5.359l5.726-9.024A5,5,0,0,0,147.713,466.719Z" fill="#ebebeb"/><path d="M457.224,391.607l-8.427-4.916a5,5,0,0,0-5.039,8.638l8.427,4.916a5,5,0,1,0,5.039-8.638Z" fill="#ebebeb"/><path d="M78.88,61.416a5,5,0,0,0-.3,7.064l6.349,6.91a5,5,0,1,0,7.363-6.765l-6.349-6.91A5,5,0,0,0,78.88,61.416Z" fill="#ebebeb"/><path d="M30.47,179.107a5,5,0,0,0,1.9-9.628l-9.588-3.933a5,5,0,0,0-3.8,9.252l9.589,3.933A4.983,4.983,0,0,0,30.47,179.107Z" fill="#ebebeb"/><path d="M489.238,166.579,450.8,182.16l-17.727,2.407a40.566,40.566,0,0,1-39.441-17.443,41.264,41.264,0,0,1-2.464-43.8l8.636-16.058c.056-.051.12-.088.174-.142l22.948-22.948a5,5,0,1,0-7.071-7.071L393.547,99.418a4.884,4.884,0,0,0-.427.253l-15.853,11.336a40.428,40.428,0,0,1-42.981,3.014,41.032,41.032,0,0,1-22.342-37.6L312.2,56.84a5,5,0,0,0-9.464-2.317l-8.808,17.459a41.232,41.232,0,0,1-73.776,0L212,55.818c-.01-.05-.007-.1-.018-.151l-10.4-45.775a5,5,0,0,0-9.751,2.216l10.083,44.364c-.008.123-.029.243-.027.368l.256,19.583a41.033,41.033,0,0,1-22.342,37.6,40.422,40.422,0,0,1-42.981-3.014L120.961,99.671c-.1-.069-.2-.117-.3-.178L106.242,83.8a5,5,0,0,0-7.364,6.766l15.075,16.406c.095.1.207.177.308.27l8.648,16.082a41.262,41.262,0,0,1-2.463,43.8A40.573,40.573,0,0,1,81,184.567L63.279,182.16,50.87,177.07a5,5,0,0,0-3.795,9.252l10.848,4.45c.114.093.219.193.342.276L74.408,201.96a41.872,41.872,0,0,1-8.891,73.868l-18.267,6.7a4.945,4.945,0,0,0-.969.5L31.707,284.85a5,5,0,0,0,.614,9.962,4.919,4.919,0,0,0,.626-.04l16.646-2.08a5.053,5.053,0,0,0,1.052-.255L67.76,294.3a40.745,40.745,0,0,1,34.189,26.522,41.241,41.241,0,0,1-8.031,43.054L80.835,378.363a5,5,0,0,0,5.557,8l18.086-7.185a40.448,40.448,0,0,1,42.417,7.413,41.187,41.187,0,0,1,12.8,41.935l-4.9,18.952a5,5,0,0,0,8.639,4.5l12.7-14.829a41.27,41.27,0,0,1,71.632,17.81l4.4,19.075a5,5,0,0,0,9.744,0l4.4-19.075a41.27,41.27,0,0,1,71.632-17.81l12.7,14.829a5,5,0,0,0,8.638-4.5l-4.9-18.952a41.185,41.185,0,0,1,12.8-41.935,40.449,40.449,0,0,1,42.417-7.413l18.085,7.185a5,5,0,0,0,5.557-8l-13.082-14.487a41.243,41.243,0,0,1-8.032-43.054,40.746,40.746,0,0,1,34.19-26.522l19.328-2.1a5,5,0,0,0,1.182-9.665l-18.267-6.7a41.873,41.873,0,0,1-8.892-73.868l16.144-10.912c.116-.078.214-.173.322-.26L493,175.846a5,5,0,0,0-3.757-9.267ZM257.04,394.684A129.841,129.841,0,1,1,386.881,264.843,129.988,129.988,0,0,1,257.04,394.684Z" fill="#ebebeb"/><path d="M257.04,145A119.841,119.841,0,1,0,376.881,264.843,119.976,119.976,0,0,0,257.04,145Zm62.913,51.381a5,5,0,0,1-7.039.674c-2.153-1.777-4.419-3.473-6.734-5.038a5,5,0,1,1,5.6-8.284c2.577,1.743,5.1,3.63,7.5,5.609A5,5,0,0,1,319.953,196.383ZM349.206,252.5a4.995,4.995,0,0,1-5.838-3.99,86.914,86.914,0,0,0-13.386-32.629,5,5,0,0,1,8.3-5.582A96.859,96.859,0,0,1,353.2,246.659,5,5,0,0,1,349.206,252.5Z" fill="#ebebeb"/></g><g transform="matrix(0.078125 0 0 0.078125 242.5 67.5)" id="L1_269"><path d="m495.986 280h-3.475a5 5 0 1 0 0 10h3.475a5 5 0 0 0 0-10z" fill="#ebebeb"/><path d="m460.885 66.437-3.543 3.542a5 5 0 1 0 7.07 7.072l3.543-3.543a5 5 0 0 0 -7.07-7.071z" fill="#ebebeb"/><path d="m433.143 94.179-20.785 20.784a5 5 0 0 0 7.071 7.072l20.784-20.785a5 5 0 0 0 -7.07-7.071z" fill="#ebebeb"/><path d="m290 469.925a5 5 0 0 0 -5 5v2.438a5 5 0 1 0 10 0v-2.438a5 5 0 0 0 -5-5z" fill="#ebebeb"/><path d="m391.9 445.6a5 5 0 0 0 -8.73 4.878l2.351 4.208a5 5 0 0 0 8.731-4.877z" fill="#ebebeb"/><path d="m339.423 36.279-3.9 16a5 5 0 1 0 9.714 2.369l3.9-16a5 5 0 0 0 -9.715-2.369z" fill="#ebebeb"/><path d="m190.859 447a5 5 0 0 0 -6.9 1.542l-5.187 8.173a5 5 0 1 0 8.444 5.359l5.184-8.174a5 5 0 0 0 -1.541-6.9z" fill="#ebebeb"/><path d="m471.18 378.958-7.632-4.452a5 5 0 0 0 -5.039 8.638l7.632 4.452a5 5 0 0 0 5.039-8.638z" fill="#ebebeb"/><path d="m127.943 79.954a5 5 0 0 0 -.3 7.065l5.75 6.257a5 5 0 1 0 7.364-6.766l-5.751-6.258a5 5 0 0 0 -7.063-.298z" fill="#ebebeb"/><path d="m493.133 183.2a5 5 0 0 0 -6.513-2.756l-6.65 2.7a5 5 0 1 0 3.758 9.267l6.65-2.7a5 5 0 0 0 2.755-6.511z" fill="#ebebeb"/><path d="m233.869 29.762a5 5 0 0 0 -3.767 5.983l4.71 20.73a5 5 0 0 0 9.752-2.216l-4.71-20.73a5 5 0 0 0 -5.985-3.767z" fill="#ebebeb"/><path d="m189.555 375.174a36.173 36.173 0 0 0 -37.934-6.63l-16.381 6.508a5 5 0 0 1 -5.556-8l11.849-13.121a36.891 36.891 0 0 0 7.184-38.512 36.443 36.443 0 0 0 -30.577-23.719l-17.506-1.906a5 5 0 0 1 -1.182-9.665l16.548-6.07a37.455 37.455 0 0 0 7.952-66.073l-14.625-9.886a5 5 0 0 1 3.473-9.1l17.45 2.37a36.264 36.264 0 0 0 35.273-15.6 36.911 36.911 0 0 0 2.2-39.177l-7.8-14.5c-.08-.077-.171-.135-.247-.218a5 5 0 1 0 7.363-6.766l-13.653-14.859a5 5 0 0 0 -7.364 6.767l6.482 7.053a153.859 153.859 0 0 0 -88.134 37.23 32.839 32.839 0 1 1 -39.332 52.4 154.3 154.3 0 0 0 -14.031 62.636 40.931 40.931 0 1 1 20.319 78.464 154.751 154.751 0 0 0 167.99 74.408l1.684-6.524a36.84 36.84 0 0 0 -11.445-37.51zm-58.1-238.474a15.37 15.37 0 1 1 -15.369 15.37 15.387 15.387 0 0 1 15.369-15.37zm-35.255 42.514a7.074 7.074 0 1 1 -7.073 7.074 7.082 7.082 0 0 1 7.073-7.074zm-12.444 201.832a15.369 15.369 0 1 1 15.37-15.369 15.386 15.386 0 0 1 -15.37 15.369z" fill="#ebebeb"/><path d="m456.8 282.223a47.478 47.478 0 0 1 -9.737-80.6 46.028 46.028 0 0 1 -41.551-20.148 47.313 47.313 0 0 1 -4.261-46.642 46.534 46.534 0 0 1 -46.075 1.56 47.079 47.079 0 0 1 -25.276-39.237 46.861 46.861 0 0 1 -80.547 0 47.075 47.075 0 0 1 -25.277 39.235 46.531 46.531 0 0 1 -46.076-1.561 47.313 47.313 0 0 1 -4.26 46.642 46.044 46.044 0 0 1 -41.551 20.149 47.478 47.478 0 0 1 -9.737 80.6 47.405 47.405 0 0 1 28.62 75.9 45.918 45.918 0 0 1 45.1 9.554 47.226 47.226 0 0 1 15.243 44.24 46.586 46.586 0 0 1 33.209-13.939 47.077 47.077 0 0 1 45.007 33.333 46.895 46.895 0 0 1 78.215-19.394 47.229 47.229 0 0 1 15.244-44.24 45.916 45.916 0 0 1 45.1-9.554 47.406 47.406 0 0 1 28.62-75.9zm-167.175 100.4a118.073 118.073 0 1 1 118.075-118.072 118.205 118.205 0 0 1 -118.071 118.073z" fill="#ebebeb"/><path d="m57.682 304.135a30.919 30.919 0 0 0 -46.411-26.769 153.565 153.565 0 0 0 14.929 57.684c.186 0 .371.014.557.014a30.965 30.965 0 0 0 30.925-30.929z" fill="#ebebeb"/><path d="m29.731 194.346a22.836 22.836 0 1 0 26.974-35.912c-1.358 1.349-2.7 2.717-4.014 4.121a154.967 154.967 0 0 0 -22.96 31.791z" fill="#ebebeb"/><path d="m83.756 360.308a5.369 5.369 0 1 0 5.37 5.369 5.374 5.374 0 0 0 -5.37-5.369z" fill="#ebebeb"/><circle cx="289" cy="264" r="108" fill="#ebebeb"/><path d="m131.455 157.438a5.37 5.37 0 1 0 -5.369-5.369 5.375 5.375 0 0 0 5.369 5.369z" fill="#ebebeb"/></g><g transform="matrix(0.16453038252070867 0.017318987825130035 -0.017318987825130035 0.16453038252070867 -35.551519759615694 -15.747494216481364)" id="L1_270"><path d="m255.959 221.854a12.6 12.6 0 0 1 -9.148-3.911l-1.811-1.826v13.2c4 .087 7.384.147 11 .147s7-.06 11-.147v-13.2l-1.82 1.883h-.092c-2.4 3-5.655 3.854-9.129 3.854z" fill="#ebebeb"/><path d="m274.226 148.771c-3.2 3.578-4.047 9.791-4.121 14.278 3.5-.123 8.459-.956 11.488-4.346 3.182-3.563 4.033-9.824 4.116-14.277-3.501.124-8.458.958-11.483 4.345z" fill="#ebebeb"/><path d="m235 205.66-19.79-20.781a55.952 55.952 0 0 1 -13.782-51.461c4.107-17.866 16.435-32.2 32.974-38.347a62.182 62.182 0 0 1 43.221 0c16.539 6.146 28.886 20.481 32.993 38.347a55.97 55.97 0 0 1 -13.825 51.461l-19.791 20.781v23.294a442.43 442.43 0 0 0 114.008-20.4 135.046 135.046 0 0 0 -270.018 0 442.5 442.5 0 0 0 114.01 20.399zm-58.862-64.532a104.371 104.371 0 0 0 -16.663 25.49 5 5 0 0 1 -9.079-4.2 114.429 114.429 0 0 1 18.259-27.928 5 5 0 0 1 7.483 6.634zm15.724-14.434c-1.342 1-2.676 2.044-3.965 3.1a5 5 0 0 1 -6.353-7.723c1.412-1.162 2.875-2.307 4.348-3.4a5 5 0 1 1 5.97 8.021z" fill="#ebebeb"/><path d="m300.83 135.659c-3.4-14.793-13.137-26.17-26.71-31.214a52.138 52.138 0 0 0 -36.24 0c-13.573 5.044-23.309 16.421-26.71 31.214a46.022 46.022 0 0 0 11.347 42.308l31.6 33.046a2.606 2.606 0 0 0 3.764 0l31.6-33.044a46.025 46.025 0 0 0 11.349-42.31zm-58.837 37.4c-5.3 0-14.181-1.106-20.064-7.692-3.618-4.051-5.789-9.769-6.453-17a48.154 48.154 0 0 1 .037-9.338 5 5 0 0 1 4.206-4.336c.644-.1 15.821-2.294 24.491 7.413 3.618 4.05 5.79 9.768 6.454 17a48.248 48.248 0 0 1 -.037 9.338 5 5 0 0 1 -4.206 4.336 31.451 31.451 0 0 1 -4.428.278zm17.014 26.941h-6.014a5 5 0 0 1 0-10h6.014a5 5 0 0 1 0 10zm9.978-26.942a31.444 31.444 0 0 1 -4.427-.28 5 5 0 0 1 -4.206-4.336 48.2 48.2 0 0 1 -.038-9.338c.665-7.227 2.836-12.945 6.455-17 8.672-9.707 23.848-7.511 24.492-7.413a5 5 0 0 1 4.206 4.336 48.252 48.252 0 0 1 .037 9.338c-.664 7.228-2.836 12.945-6.454 17-5.884 6.587-14.763 7.693-20.065 7.693z" fill="#ebebeb"/><path d="m225.266 144.426c.074 4.483.923 10.7 4.12 14.277 3.027 3.389 7.987 4.223 11.488 4.345-.074-4.483-.924-10.7-4.121-14.277-3.026-3.388-7.986-4.222-11.487-4.345z" fill="#ebebeb"/><path d="m17.986 423.282a3.2 3.2 0 0 0 5.294 3.518l108.19-125.655a476.153 476.153 0 0 1 -47.588-10.145z" fill="#ebebeb"/><path d="m255.393 483.806a6.445 6.445 0 0 0 6.407-5.506l27.972-183.762a51.97 51.97 0 0 0 -67.56.013l26.767 183.708a6.517 6.517 0 0 0 6.414 5.547z" fill="#ebebeb"/><path d="m212.832 299.53-.9-6.182a5 5 0 0 1 1.511-4.354 61.973 61.973 0 0 1 85.114 0 5 5 0 0 1 1.507 4.386l-.936 6.152c123.372-6.132 196.872-36.354 196.872-62.52 0-18.951-37.887-38.542-97.248-50.64a150.143 150.143 0 0 1 2.222 25.8 5 5 0 0 1 -3.448 4.753 455.082 455.082 0 0 1 -141.526 22.534 455.07 455.07 0 0 1 -141.525-22.529 5 5 0 0 1 -3.449-4.754 150.155 150.155 0 0 1 2.222-25.8c-59.359 12.094-97.248 31.687-97.248 50.636 0 26.175 73.482 56.381 196.832 62.518zm-87.5-67.181a15.226 15.226 0 0 1 15.209 15.209 5 5 0 0 1 -10 0 5.209 5.209 0 1 0 -10.417 0 5 5 0 0 1 -10 0 15.226 15.226 0 0 1 15.209-15.209zm-38.791 0a15.226 15.226 0 0 1 15.208 15.209 5 5 0 0 1 -10 0 5.209 5.209 0 1 0 -10.417 0 5 5 0 0 1 -10 0 15.226 15.226 0 0 1 15.21-15.209z" fill="#ebebeb"/><path d="m492.43 427.644a3.2 3.2 0 0 0 1.584-4.363l-65.898-132.281a475.855 475.855 0 0 1 -47.584 10.142l108.188 125.658a3.189 3.189 0 0 0 3.71.844z" fill="#ebebeb"/><path d="m354.655 75.584a27.323 27.323 0 0 1 16.776 17.649 5 5 0 0 0 4.646 3.543h.138a5 5 0 0 0 4.7-3.286 27.437 27.437 0 0 1 17.731-16.757 5 5 0 0 0 .249-9.487 27.32 27.32 0 0 1 -16.781-17.646 5 5 0 0 0 -9.48-.258 27.436 27.436 0 0 1 -17.734 16.758 5 5 0 0 0 -.249 9.486z" fill="#ebebeb"/><path d="m357.938 420.594a5 5 0 0 0 -9.389 1.346 27.437 27.437 0 0 1 -14.649 19.51 5 5 0 0 0 1.357 9.392 27.327 27.327 0 0 1 19.515 14.563 5 5 0 0 0 9.388-1.346 27.433 27.433 0 0 1 14.646-19.51 5 5 0 0 0 -1.357-9.392 27.323 27.323 0 0 1 -19.511-14.563z" fill="#ebebeb"/><path d="m43.066 106.48a5 5 0 0 0 3.3 4.833 27.329 27.329 0 0 1 16.774 17.649 5 5 0 0 0 4.647 3.543h.137a5 5 0 0 0 4.7-3.286 27.434 27.434 0 0 1 17.73-16.757 5 5 0 0 0 .249-9.487 27.324 27.324 0 0 1 -16.781-17.647 5 5 0 0 0 -9.48-.258 27.434 27.434 0 0 1 -17.73 16.757 5 5 0 0 0 -3.546 4.653z" fill="#ebebeb"/><path d="m45.708 53.5a10.1 10.1 0 1 0 -10.1-10.1 10.115 10.115 0 0 0 10.1 10.1z" fill="#ebebeb"/><path d="m36.521 76.974a6.021 6.021 0 1 0 -6.021-6.02 6.027 6.027 0 0 0 6.021 6.02z" fill="#ebebeb"/><path d="m133.883 408.754a10.133 10.133 0 0 0 -11.1 16.956 10.4 10.4 0 0 0 14.217-2.979 10.18 10.18 0 0 0 -3.117-13.977z" fill="#ebebeb"/><path d="m143.494 389.4a6.027 6.027 0 0 0 8.326-1.77v-.007a6.021 6.021 0 1 0 -8.33 1.777z" fill="#ebebeb"/><path d="m377.64 413.9a6.311 6.311 0 0 0 1.487-.179 7.193 7.193 0 0 0 4.873-3.5c2-1.807 1.781-3.961 1.332-6.067a7.719 7.719 0 0 0 -3.29-5.083 8.062 8.062 0 1 0 -4.4 14.829z" fill="#ebebeb"/><path d="m390.965 380.319a6.021 6.021 0 1 0 -3.289 11.074 6.053 6.053 0 0 0 1.266-.134 6.021 6.021 0 0 0 2.023-10.94z" fill="#ebebeb"/><path d="m481.917 47.49a10.1 10.1 0 1 0 -5.264-5.665 10.079 10.079 0 0 0 5.264 5.665z" fill="#ebebeb"/><path d="m472.973 88.678a6.021 6.021 0 1 0 5.013-10.948 6.021 6.021 0 0 0 -5.01 10.95z" fill="#ebebeb"/><path d="m442.556 171.355c5.827 1.527 11.445 3.152 16.7 4.831 6.824 2.181 13.195 4.5 18.937 6.9a5 5 0 0 0 3.856-9.227c-6.007-2.51-12.651-4.933-19.749-7.2-5.42-1.732-11.209-3.408-17.207-4.979a5 5 0 1 0 -2.535 9.673z" fill="#ebebeb"/><path d="m417.094 165.533q2.307.459 4.574.932a5 5 0 0 0 2.045-9.789q-2.313-.483-4.668-.951a5 5 0 1 0 -1.951 9.808z" fill="#ebebeb"/></g><g transform="matrix(0.17260393500328064 0 0 0.17260393500328064 127.97713777422905 124.22901590168476)" id="L1_271"><path d="m394.414 139.841c-1.452-67.984-57.134-122.841-125.375-122.841s-123.919 54.853-125.375 122.833c28.529 12.762 75.191 20.36 125.375 20.36 50.389 0 96.85-7.577 125.375-20.352zm-206.962-52.995c-1.978 3.308-3.825 6.747-5.488 10.221a5 5 0 0 1 -9.02-4.317c1.8-3.752 3.789-7.465 5.926-11.037a5 5 0 1 1 8.582 5.133zm48.441-46.285a125.5 125.5 0 0 0 -34.558 27.346 5 5 0 0 1 -7.481-6.637 135.5 135.5 0 0 1 37.3-29.518 5 5 0 0 1 4.735 8.809z" fill="#ebebeb"/><path d="m269.539 421.927c30.043 0 58.357 4 79.729 11.26 9.558 3.247 16.662 6.754 21.914 10.307l-46.255-235.716c-17.95 1.615-36.717 2.454-55.888 2.454s-37.926-.839-55.871-2.452l-45.286 235.72c5.255-3.557 12.362-7.067 21.929-10.317 21.371-7.257 49.689-11.256 79.728-11.256zm68.705-45.364 3.7 18.878a5 5 0 1 1 -9.812 1.926l-3.7-18.877a5 5 0 1 1 9.812-1.927zm-26.772-110.469a5 5 0 0 1 5.869 3.943l14.884 75.852a5 5 0 1 1 -9.813 1.925l-14.884-75.851a5 5 0 0 1 3.944-5.869zm-101.365 60.739 16.5-85.906a5 5 0 1 1 9.821 1.887l-16.5 85.906a5 5 0 0 1 -9.821-1.887zm-6.974 36.309 2.364-12.309a5 5 0 1 1 9.82 1.885l-2.364 12.31a5 5 0 1 1 -9.82-1.886z" fill="#ebebeb"/><path d="m129.142 182.105c37.3 11.689 86.979 18.127 139.9 18.127s102.6-6.438 139.9-18.127c34.989-10.967 55.058-25.38 55.058-39.543 0-15.671-25.229-31.779-66.487-42.846a135.135 135.135 0 0 1 6.923 41.881 5 5 0 0 1 -2.632 5.839c-29.483 14.25-79.115 22.757-132.765 22.757-52.437 0-101.435-8.208-131.067-21.955a4.96 4.96 0 0 1 -1.679-1.281 4.98 4.98 0 0 1 -2.663-4.395 135.171 135.171 0 0 1 6.935-42.845c-41.258 11.067-66.486 27.174-66.486 42.845 0 14.163 20.069 28.576 55.063 39.543zm66.217.831a13.746 13.746 0 1 1 27.163 4.241 5 5 0 1 1 -9.88-1.541 3.746 3.746 0 1 0 -7.4-1.159 5 5 0 0 1 -9.881-1.541zm-39.992-5.223a13.746 13.746 0 1 1 27.163 4.242 5 5 0 0 1 -4.934 4.23 5.133 5.133 0 0 1 -.777-.06 5 5 0 0 1 -4.17-5.711 3.757 3.757 0 0 0 -3.124-4.291 3.746 3.746 0 0 0 -4.277 3.131 5 5 0 0 1 -9.881-1.541z" fill="#ebebeb"/><path d="m346.051 486.271c18.137-6.162 28.967-14.315 28.967-21.808s-10.83-15.645-28.967-21.808c-20.363-6.918-47.534-10.728-76.512-10.728s-56.149 3.81-76.511 10.728c-18.138 6.163-28.966 14.315-28.966 21.808s10.828 15.646 28.966 21.808c20.362 6.919 47.534 10.729 76.511 10.729s56.149-3.81 76.512-10.729z" fill="#ebebeb"/><path d="m391.434 44.743a26.75 26.75 0 0 1 16.834 16.838 5 5 0 0 0 9.486 0 26.75 26.75 0 0 1 16.834-16.838 5 5 0 0 0 0-9.486 26.75 26.75 0 0 1 -16.834-16.838 5 5 0 0 0 -9.486 0 26.75 26.75 0 0 1 -16.834 16.838 5 5 0 0 0 0 9.486z" fill="#ebebeb"/><path d="m47.148 271.162a18.812 18.812 0 0 1 15.186 7.038 5 5 0 0 0 8.907-3.265 18.807 18.807 0 0 1 7.038-15.19 5 5 0 0 0 -3.266-8.907 18.789 18.789 0 0 1 -15.186-7.038 5 5 0 0 0 -8.907 3.265 18.81 18.81 0 0 1 -7.038 15.19 5 5 0 0 0 3.266 8.907z" fill="#ebebeb"/><circle cx="445" cy="65" r="9" fill="#ebebeb"/><circle cx="97" cy="271" r="9" fill="#ebebeb"/><circle cx="464" cy="78" r="6" fill="#ebebeb"/><circle cx="113" cy="247" r="6" fill="#ebebeb"/></g><g transform="matrix(0.055235974734417825 0.008721469765259466 -0.008721469765259466 0.055235974734417825 164.2475201866125 -12.129909679584024)" id="L1_274"><path d="m217.944 303.656a15.9 15.9 0 0 0 19.434 24.8 91.949 91.949 0 0 0 -16.014-21.549q-1.677-1.678-3.42-3.251z" fill="#ebebeb"/><path d="m152.119 436.354a.327.327 0 0 0 -.234.1.331.331 0 0 0 .469.467.31.31 0 0 0 .1-.232.32.32 0 0 0 -.1-.234.331.331 0 0 0 -.235-.101z" fill="#ebebeb"/><path d="m224.9 403.423a16.879 16.879 0 0 0 -3.053 33.484 91.866 91.866 0 0 0 17.6-25.144 16.8 16.8 0 0 0 -14.552-8.34z" fill="#ebebeb"/><path d="m162.645 366.842a9.1 9.1 0 1 0 6.439 2.662 9.077 9.077 0 0 0 -6.439-2.662z" fill="#ebebeb"/><path d="m211.046 333.046a25.913 25.913 0 0 1 -.91-35.694 92.385 92.385 0 0 0 -116.445 6.859 26.885 26.885 0 1 1 -27.261 46.317 92.245 92.245 0 0 0 146.881 94.025 26.877 26.877 0 1 1 30.389-43.453 92.844 92.844 0 0 0 -2.053-63.558 25.958 25.958 0 0 1 -30.6-4.494zm-111.769 64.825a7.664 7.664 0 1 1 2.244-5.419 7.612 7.612 0 0 1 -2.244 5.419zm55.54-92.354a7.665 7.665 0 1 1 10.84 10.84 7.665 7.665 0 1 1 -10.84-10.841zm4.607 138.472a10.332 10.332 0 1 1 3.026-7.305 10.3 10.3 0 0 1 -3.026 7.306zm16.73-54.536a19.1 19.1 0 1 1 5.6-13.51 19.042 19.042 0 0 1 -5.6 13.51z" fill="#ebebeb"/><path d="m450.04 201.743-128.949 128.95a13.048 13.048 0 0 1 -18.452-18.452l88.586-88.586a23.887 23.887 0 1 0 -33.781-33.781l-45.109 45.11a13.048 13.048 0 0 1 -18.452-18.452l169.755-169.755a23.887 23.887 0 0 0 -33.781-33.777l-107.432 107.429a13.047 13.047 0 0 1 -18.452-18.451l36.208-36.207a23.887 23.887 0 0 0 -33.781-33.781l-60.51 60.51-.027.026-50.755 50.754-.023.024-133.915 133.915a133.76 133.76 0 0 0 94.425 228.7 136.413 136.413 0 0 0 96.62-39.989l231.008-231.004a23.464 23.464 0 0 0 -33.183-33.183zm-184.993-24.743a5 5 0 0 1 7.07 7.071l-67.242 67.243a5 5 0 0 1 -7.07-7.072zm-27.2 107.3-.245.244a5 5 0 1 1 -7.056-7.085l.244-.244a5 5 0 0 1 7.057 7.085zm-10.923-131.375 9.515-9.516a5 5 0 0 1 7.071 7.071l-9.516 9.52a5 5 0 1 1 -7.07-7.071zm-77.346 77.346 56.707-56.708a5 5 0 0 1 7.07 7.072l-56.707 56.707a5 5 0 0 1 -7.07-7.071zm-20.558 20.559a5 5 0 1 1 -1.47 3.54 5.027 5.027 0 0 1 1.47-3.54zm120.7 162.549a5.048 5.048 0 0 1 -.257.572 101.752 101.752 0 0 1 -21.026 30.533c-.425.425-.857.839-1.288 1.255-.035.034-.068.069-.1.1a102.279 102.279 0 0 1 -146.813-142.271 5.006 5.006 0 0 1 1.243-1.342c.755-.805 1.521-1.605 2.307-2.391a102.281 102.281 0 0 1 165.932 113.544zm18.29-159.244-15.077 15.077a5 5 0 1 1 -7.071-7.071l15.077-15.077a5 5 0 1 1 7.071 7.071zm11.832 138.939-.526.525a5 5 0 1 1 -7.068-7.074l.525-.525a5 5 0 1 1 7.069 7.074zm4.492-235.366.169-.169a5 5 0 1 1 7.06 7.081l-.168.169a5 5 0 1 1 -7.061-7.081zm18.542 212.332-8.855 8.856a5 5 0 0 1 -7.071-7.072l8.856-8.855a5 5 0 1 1 7.07 7.071z" fill="#ebebeb"/><path d="m92.729 339.732a16.889 16.889 0 0 0 -6.417-27.9 91.584 91.584 0 0 0 -16.8 28.511 16.852 16.852 0 0 0 23.213-.61z" fill="#ebebeb"/><path d="m279.479 471.641-9.116 9.117a5 5 0 0 0 7.071 7.071l9.116-9.117a5 5 0 0 0 -7.071-7.071z" fill="#ebebeb"/><path d="m388.152 362.969-80.234 80.231a5 5 0 1 0 7.07 7.071l80.235-80.234a5 5 0 0 0 -7.071-7.071z" fill="#ebebeb"/><path d="m434.325 316.8-15.3 15.306a5 5 0 0 0 7.07 7.071l15.305-15.31a5 5 0 1 0 -7.071-7.072z" fill="#ebebeb"/><path d="m217.594 64.256-19.789 19.789a5 5 0 1 0 7.07 7.072l19.789-19.79a5 5 0 1 0 -7.07-7.071z" fill="#ebebeb"/><path d="m72.7 216.22a5 5 0 0 0 7.07 0l94.577-94.575a5 5 0 1 0 -7.071-7.072l-94.576 94.576a5 5 0 0 0 0 7.071z" fill="#ebebeb"/><path d="m36.436 257.485a4.984 4.984 0 0 0 3.535-1.464l9.63-9.63a5 5 0 0 0 -7.071-7.072l-9.63 9.631a5 5 0 0 0 3.536 8.535z" fill="#ebebeb"/><path d="m442.958 93.315-19.058 19.059a5 5 0 0 0 7.071 7.071l19.058-19.058a5 5 0 1 0 -7.07-7.072z" fill="#ebebeb"/><path d="m481.561 54.713-9.543 9.543a5 5 0 1 0 7.07 7.071l9.543-9.543a5 5 0 1 0 -7.07-7.071z" fill="#ebebeb"/></g><g transform="matrix(0.0583392260612536 0.016205340350268084 -0.016205340350268084 0.0583392260612536 78.5025679320483 -10.925633152850583)" id="L1_275"><path d="m407.041 170.67a5.163 5.163 0 1 0 -7.3 0 5.168 5.168 0 0 0 7.3 0z" fill="#ebebeb"/><path d="m281.05 175.988a5.011 5.011 0 0 1 4.251-1.782l.779.064a55.673 55.673 0 0 1 50.99 51.775 5 5 0 0 1 -1.791 4.177l-7.884 6.56a108.426 108.426 0 0 0 98.018-2.631 30.876 30.876 0 0 1 -4.875-3.973l-140.176-140.178a30.915 30.915 0 0 1 -2.69-3.084 108.84 108.84 0 0 0 -2.936 96.648z" fill="#ebebeb"/><path d="m348.632 112.261a5.164 5.164 0 1 0 -7.3 0 5.169 5.169 0 0 0 7.3 0z" fill="#ebebeb"/><path d="m315.775 84.568a5.13 5.13 0 0 0 3.651-1.512 5.165 5.165 0 1 0 -3.652 1.512z" fill="#ebebeb"/><path d="m436.246 199.875a5.163 5.163 0 1 0 -7.3 0 5.168 5.168 0 0 0 7.3 0z" fill="#ebebeb"/><path d="m377.836 141.465a5.163 5.163 0 1 0 -7.3 0 5.167 5.167 0 0 0 7.3 0z" fill="#ebebeb"/><path d="m29.976 289.782 227.589-126.29a118.949 118.949 0 0 1 -1.285-43.767l-226.824 169.252a.48.48 0 0 0 .52.805z" fill="#ebebeb"/><path d="m464.845 185.871a31.671 31.671 0 0 1 4.216 5.227 108.961 108.961 0 0 0 -147.789-148.347 31.841 31.841 0 0 1 3.4 2.944zm-68.888-138.889a5 5 0 0 1 6.219-3.365 97.654 97.654 0 0 1 41.124 24.352 5 5 0 0 1 -7.071 7.071 87.617 87.617 0 0 0 -36.907-21.84 5 5 0 0 1 -3.365-6.218zm-26.129-7.508a101.591 101.591 0 0 1 11.185.234 5 5 0 0 1 -.374 9.985c-.128 0-.257 0-.386-.015a91.653 91.653 0 0 0 -10.079-.21 5 5 0 0 1 -.346-9.994z" fill="#ebebeb"/><path d="m287.044 184.417-193.857 232.677a.479.479 0 0 0 .029.647l.176.175a.479.479 0 0 0 .646.03l232.821-193.727a45.355 45.355 0 0 0 -39.815-39.802z" fill="#ebebeb"/><path d="m377.935 257.056q-2.069.072-4.136.071a119.381 119.381 0 0 1 -25.283-2.716l-126.3 227.613a.48.48 0 0 0 .805.52l169.289-226.874a119.525 119.525 0 0 1 -14.375 1.386z" fill="#ebebeb"/><path d="m427.608 223.107a21.442 21.442 0 0 0 29.867.293 21.188 21.188 0 0 0 .3-30.338l-140.175-140.055a20.945 20.945 0 0 0 -15.078-6.007h-.216a20.714 20.714 0 0 0 -15.165 6.305 21.145 21.145 0 0 0 .292 29.626zm15.708-37.6a15.163 15.163 0 1 1 -21.443 0 15.179 15.179 0 0 1 21.443-.007zm-29.2-29.2a15.18 15.18 0 0 1 0 21.443 15.163 15.163 0 1 1 0-21.444zm-29.2-29.2a15.162 15.162 0 1 1 -21.443 0 15.181 15.181 0 0 1 21.433-.014zm-29.2-29.2a15.163 15.163 0 1 1 -21.443 0 15.181 15.181 0 0 1 21.427-.019zm-50.649-29.2a15.163 15.163 0 1 1 0 21.443 15.181 15.181 0 0 1 -.014-21.466z" fill="#ebebeb"/><path d="m336.421 397.58-22.121 29.649a5 5 0 0 0 8.015 5.98l22.122-29.648a5 5 0 1 0 -8.014-5.981z" fill="#ebebeb"/><path d="m371.309 350.823-17.681 23.7a5 5 0 0 0 8.016 5.98l17.68-23.7a5 5 0 0 0 -8.015-5.981z" fill="#ebebeb"/></g><g transform="matrix(0.07787078619003296 0 0 0.07787078619003296 67.78205521419568 83.77020338177681)" id="L1_276"><path d="m297 395.021a1.688 1.688 0 0 1 -.3.066c-.054.012-.15.03-.2.041-2.777.737-5.493 1.408-8.493 1.994v31.235c3-.659 6-1.42 9-2.257z" fill="#ebebeb"/><path d="m241 431.173v-31.413c-4-.3-7-.707-10-1.207v31.331a100.068 100.068 0 0 0 10 1.289z" fill="#ebebeb"/><path d="m251 431.841c1 .054 2.9.093 4.566.093 1.282 0 2.434-.037 3.434-.069v-31.457c-1 .03-2.152.064-3.434.064-1.661 0-3.566-.036-4.566-.086z" fill="#ebebeb"/><path d="m220.248 181.36c-15.68-17.553-43.056-17.368-53.153-16.622-.688 11.1-1.079 42.959 15.027 60.988 15.68 17.552 43.056 17.365 53.153 16.622.688-11.1 1.079-42.959-15.027-60.988z" fill="#ebebeb"/><path d="m327.137 165.114c-10.645 1.258-25.425 5.1-35.385 16.246-16.145 18.073-15.731 49.895-15.031 60.987a95.218 95.218 0 0 0 17.772-.375c10.645-1.258 25.425-5.1 35.385-16.246 16.145-18.073 15.731-49.9 15.031-60.987a95.218 95.218 0 0 0 -17.772.375z" fill="#ebebeb"/><path d="m278 430.217v-31.355q-4.5.622-9 1v31.42c3-.275 6-.622 9-1.065z" fill="#ebebeb"/><path d="m171 376.043v29.485c3 2.4 7 4.631 10 6.716v-30.044c-3-1.914-7-3.957-10-6.157z" fill="#ebebeb"/><path d="m191 387.026v30.457c4 1.527 7 2.943 10 4.232v-30.768c-3-1.195-6-2.507-10-3.921z" fill="#ebebeb"/><path d="m291 340.906-17.5 18.052a24.335 24.335 0 0 1 -17.6 7.419 24.019 24.019 0 0 1 -17.456-7.419l-17.444-18.052v45.657a153 153 0 0 0 34.553 3.909 157.251 157.251 0 0 0 35.447-4.157z" fill="#ebebeb"/><path d="m366 497v-62.835a23.225 23.225 0 0 0 -18.673-22.771 4.919 4.919 0 0 1 -2 2.93 159.684 159.684 0 0 1 -182.669-2.207 4.772 4.772 0 0 1 -.926-.913 23.191 23.191 0 0 0 -19.732 22.961v62.835h41v-22.835a5 5 0 1 1 10 0v22.835h53a10 10 0 0 1 20 0h49v-20.835a5 5 0 1 1 10 0v20.835zm-110-22a10 10 0 1 1 10-10 10.011 10.011 0 0 1 -10 10z" fill="#ebebeb"/><path d="m211 394.208v31.022c3 1 7 1.873 10 2.651v-31.2c-3-.727-7-1.542-10-2.473z" fill="#ebebeb"/><path d="m307 391.98v30.853c3-1.207 7-2.531 10-3.971v-30.562c-3 1.332-7 2.561-10 3.68z" fill="#ebebeb"/><path d="m417.168 166.161a87.382 87.382 0 0 0 -20.144-60.37 5.381 5.381 0 0 0 -4.131-1.964 5.225 5.225 0 0 0 -2.4.586 5.162 5.162 0 0 0 -2.77 3.857 5.382 5.382 0 0 0 1.592 4.686 97.135 97.135 0 0 1 27.853 53.205z" fill="#ebebeb"/><path d="m327 383.731v30.185c3-1.954 7-4.045 10-6.306v-29.668c-3 2.074-7 3.994-10 5.789z" fill="#ebebeb"/><path d="m161 381.92v-14.328c-1-1.311-.215-2.725.623-3.9l-.1-.142a4.933 4.933 0 0 1 5.549-1.862 4.719 4.719 0 0 1 2.246 1.586 159.738 159.738 0 0 0 41.682 20.569v-53.394l-51.621-54.175c-30.7-32.106-42.777-77.672-32.611-121.891 9.709-42.233 38.8-76.1 77.805-90.593a148.06 148.06 0 0 1 102.912 0c39.007 14.494 68.137 48.36 77.847 90.593 10.165 44.219-2 89.785-32.708 121.891l-51.624 54.175v53.1a158.936 158.936 0 0 0 38.586-18.768 4.6 4.6 0 0 1 4.457-.5 4.938 4.938 0 0 1 2.98 3.586l.047.64a5.028 5.028 0 0 1 -.07 1.055v14.55a196 196 0 0 0 104.257-173.194c0-108.029-87.509-195.918-195.212-195.918s-195.28 87.889-195.28 195.918a195.9 195.9 0 0 0 29.845 103.993 193.354 193.354 0 0 0 70.39 67.009zm241.921-149c-.083 0-.166 0-.248 0a6 6 0 1 1 .248 0zm-25.09-126.137a15.055 15.055 0 0 1 8.069-11.255 15.244 15.244 0 0 1 18.8 3.854 97.357 97.357 0 0 1 9.288 111.418 5 5 0 0 1 -8.677-4.969 87.076 87.076 0 0 0 -23-85.725 15.478 15.478 0 0 1 -4.48-13.322z" fill="#ebebeb"/><path d="m375.493 156.624a121.285 121.285 0 0 0 -24.6-50.211 110.191 110.191 0 0 0 -46.934-33.249 137.957 137.957 0 0 0 -95.91 0 110.191 110.191 0 0 0 -46.934 33.249 121.285 121.285 0 0 0 -24.6 50.211c-9.409 40.928 1.912 83.073 30.283 112.739l79.074 82.684a14.029 14.029 0 0 0 20.272 0l79.074-82.684c28.363-29.663 39.682-71.811 30.275-112.739zm-188.349-50.365a120.8 120.8 0 0 1 25.32-15.935c2.9-1.357 5.9-2.621 8.927-3.757a5 5 0 0 1 3.517 9.361c-2.78 1.044-5.54 2.206-8.2 3.453a110.74 110.74 0 0 0 -23.227 14.619 5 5 0 0 1 -6.337-7.736zm-20.193 21.066c1.885-2.5 3.883-4.956 5.941-7.3a5 5 0 1 1 7.509 6.6c-1.891 2.151-3.73 4.409-5.463 6.709a5 5 0 1 1 -7.987-6.017zm61.466 125.275a103.489 103.489 0 0 1 -11.8-.667c-17.856-2.056-32.362-8.815-41.949-19.547-22.667-25.375-17.4-70.88-17.17-72.805a5 5 0 0 1 4.207-4.335 99.3 99.3 0 0 1 24.056-.1c17.856 2.056 32.362 8.815 41.949 19.547 22.668 25.374 17.405 70.88 17.17 72.8a5 5 0 0 1 -4.206 4.336 88.129 88.129 0 0 1 -12.257.771zm35.107 67.4h-15.048a5 5 0 0 1 0-10h15.048a5 5 0 0 1 0 10zm31.863-68.065a103.706 103.706 0 0 1 -11.8.667 88.112 88.112 0 0 1 -12.253-.764 5 5 0 0 1 -4.206-4.336c-.235-1.924-5.5-47.43 17.17-72.8 9.587-10.732 24.093-17.491 41.949-19.547a99.357 99.357 0 0 1 24.056.1 5 5 0 0 1 4.207 4.335c.235 1.925 5.5 47.43-17.17 72.805-9.591 10.725-24.097 17.484-41.953 19.54z" fill="#ebebeb"/></g></defs><g fi:class="KUsePattern"><pattern id="pattern_L1_262" width="350" height="350" patternUnits="userSpaceOnUse"><use xlink:href="#L1_262" x="-350" y="-350"/><use xlink:href="#L1_262" x="0" y="-350"/><use xlink:href="#L1_262" x="350" y="-350"/><use xlink:href="#L1_262" x="-350" y="0"/><use xlink:href="#L1_262" x="0" y="0"/><use xlink:href="#L1_262" x="350" y="0"/><use xlink:href="#L1_262" x="-350" y="350"/><use xlink:href="#L1_262" x="0" y="350"/><use xlink:href="#L1_262" x="350" y="350"/></pattern><rect x="0" y="0" width="100%" height="100%" fill="url(#pattern_L1_262)"/></g><g fi:class="KUsePattern"><pattern id="pattern_L1_264" width="350" height="350" patternUnits="userSpaceOnUse"><use xlink:href="#L1_264" x="-350" y="-350"/><use xlink:href="#L1_264" x="0" y="-350"/><use xlink:href="#L1_264" x="350" y="-350"/><use xlink:href="#L1_264" x="-350" y="0"/><use xlink:href="#L1_264" x="0" y="0"/><use xlink:href="#L1_264" x="350" y="0"/><use xlink:href="#L1_264" x="-350" y="350"/><use xlink:href="#L1_264" x="0" y="350"/><use xlink:href="#L1_264" x="350" y="350"/></pattern><rect x="0" y="0" width="100%" height="100%" fill="url(#pattern_L1_264)"/></g><g fi:class="KUsePattern"><pattern id="pattern_L1_265" width="350" height="350" patternUnits="userSpaceOnUse"><use xlink:href="#L1_265" x="-350" y="-350"/><use xlink:href="#L1_265" x="0" y="-350"/><use xlink:href="#L1_265" x="350" y="-350"/><use xlink:href="#L1_265" x="-350" y="0"/><use xlink:href="#L1_265" x="0" y="0"/><use xlink:href="#L1_265" x="350" y="0"/><use xlink:href="#L1_265" x="-350" y="350"/><use xlink:href="#L1_265" x="0" y="350"/><use xlink:href="#L1_265" x="350" y="350"/></pattern><rect x="0" y="0" width="100%" height="100%" fill="url(#pattern_L1_265)"/></g><g fi:class="KUsePattern"><pattern id="pattern_L1_267" width="350" height="350" patternUnits="userSpaceOnUse"><use xlink:href="#L1_267" x="-350" y="-350"/><use xlink:href="#L1_267" x="0" y="-350"/><use xlink:href="#L1_267" x="350" y="-350"/><use xlink:href="#L1_267" x="-350" y="0"/><use xlink:href="#L1_267" x="0" y="0"/><use xlink:href="#L1_267" x="350" y="0"/><use xlink:href="#L1_267" x="-350" y="350"/><use xlink:href="#L1_267" x="0" y="350"/><use xlink:href="#L1_267" x="350" y="350"/></pattern><rect x="0" y="0" width="100%" height="100%" fill="url(#pattern_L1_267)"/></g><g fi:class="KUsePattern"><pattern id="pattern_L1_269" width="350" height="350" patternUnits="userSpaceOnUse"><use xlink:href="#L1_269" x="-350" y="-350"/><use xlink:href="#L1_269" x="0" y="-350"/><use xlink:href="#L1_269" x="350" y="-350"/><use xlink:href="#L1_269" x="-350" y="0"/><use xlink:href="#L1_269" x="0" y="0"/><use xlink:href="#L1_269" x="350" y="0"/><use xlink:href="#L1_269" x="-350" y="350"/><use xlink:href="#L1_269" x="0" y="350"/><use xlink:href="#L1_269" x="350" y="350"/></pattern><rect x="0" y="0" width="100%" height="100%" fill="url(#pattern_L1_269)"/></g><g fi:class="KUsePattern"><pattern id="pattern_L1_270" width="350" height="350" patternUnits="userSpaceOnUse"><use xlink:href="#L1_270" x="-350" y="-350"/><use xlink:href="#L1_270" x="0" y="-350"/><use xlink:href="#L1_270" x="350" y="-350"/><use xlink:href="#L1_270" x="-350" y="0"/><use xlink:href="#L1_270" x="0" y="0"/><use xlink:href="#L1_270" x="350" y="0"/><use xlink:href="#L1_270" x="-350" y="350"/><use xlink:href="#L1_270" x="0" y="350"/><use xlink:href="#L1_270" x="350" y="350"/></pattern><rect x="0" y="0" width="100%" height="100%" fill="url(#pattern_L1_270)"/></g><g fi:class="KUsePattern"><pattern id="pattern_L1_271" width="350" height="350" patternUnits="userSpaceOnUse"><use xlink:href="#L1_271" x="-350" y="-350"/><use xlink:href="#L1_271" x="0" y="-350"/><use xlink:href="#L1_271" x="350" y="-350"/><use xlink:href="#L1_271" x="-350" y="0"/><use xlink:href="#L1_271" x="0" y="0"/><use xlink:href="#L1_271" x="350" y="0"/><use xlink:href="#L1_271" x="-350" y="350"/><use xlink:href="#L1_271" x="0" y="350"/><use xlink:href="#L1_271" x="350" y="350"/></pattern><rect x="0" y="0" width="100%" height="100%" fill="url(#pattern_L1_271)"/></g><g fi:class="KUsePattern"><pattern id="pattern_L1_274" width="350" height="350" patternUnits="userSpaceOnUse"><use xlink:href="#L1_274" x="-350" y="-350"/><use xlink:href="#L1_274" x="0" y="-350"/><use xlink:href="#L1_274" x="350" y="-350"/><use xlink:href="#L1_274" x="-350" y="0"/><use xlink:href="#L1_274" x="0" y="0"/><use xlink:href="#L1_274" x="350" y="0"/><use xlink:href="#L1_274" x="-350" y="350"/><use xlink:href="#L1_274" x="0" y="350"/><use xlink:href="#L1_274" x="350" y="350"/></pattern><rect x="0" y="0" width="100%" height="100%" fill="url(#pattern_L1_274)"/></g><g fi:class="KUsePattern"><pattern id="pattern_L1_275" width="350" height="350" patternUnits="userSpaceOnUse"><use xlink:href="#L1_275" x="-350" y="-350"/><use xlink:href="#L1_275" x="0" y="-350"/><use xlink:href="#L1_275" x="350" y="-350"/><use xlink:href="#L1_275" x="-350" y="0"/><use xlink:href="#L1_275" x="0" y="0"/><use xlink:href="#L1_275" x="350" y="0"/><use xlink:href="#L1_275" x="-350" y="350"/><use xlink:href="#L1_275" x="0" y="350"/><use xlink:href="#L1_275" x="350" y="350"/></pattern><rect x="0" y="0" width="100%" height="100%" fill="url(#pattern_L1_275)"/></g><g fi:class="KUsePattern"><pattern id="pattern_L1_276" width="350" height="350" patternUnits="userSpaceOnUse"><use xlink:href="#L1_276" x="-350" y="-350"/><use xlink:href="#L1_276" x="0" y="-350"/><use xlink:href="#L1_276" x="350" y="-350"/><use xlink:href="#L1_276" x="-350" y="0"/><use xlink:href="#L1_276" x="0" y="0"/><use xlink:href="#L1_276" x="350" y="0"/><use xlink:href="#L1_276" x="-350" y="350"/><use xlink:href="#L1_276" x="0" y="350"/><use xlink:href="#L1_276" x="350" y="350"/></pattern><rect x="0" y="0" width="100%" height="100%" fill="url(#pattern_L1_276)"/></g></svg>