<?xml version="1.0" encoding="UTF-8" standalone="no"?>
<!-- Generator: Adobe Illustrator 16.0.0, SVG Export Plug-In . SVG Version: 6.00 Build 0)  -->

<svg
   xmlns:dc="http://purl.org/dc/elements/1.1/"
   xmlns:cc="http://creativecommons.org/ns#"
   xmlns:rdf="http://www.w3.org/1999/02/22-rdf-syntax-ns#"
   xmlns:svg="http://www.w3.org/2000/svg"
   xmlns="http://www.w3.org/2000/svg"
   xmlns:sodipodi="http://sodipodi.sourceforge.net/DTD/sodipodi-0.dtd"
   xmlns:inkscape="http://www.inkscape.org/namespaces/inkscape"
   version="1.1"
   id="Capa_1"
   x="0px"
   y="0px"
   width="56.971px"
   height="56.971px"
   viewBox="0 0 56.971 56.971"
   style="enable-background:new 0 0 56.971 56.971;"
   xml:space="preserve"
   sodipodi:docname="twitter-logo.svg"
   inkscape:version="0.92.4 (5da689c313, 2019-01-14)"><metadata
   id="metadata45"><rdf:RDF><cc:Work
       rdf:about=""><dc:format>image/svg+xml</dc:format><dc:type
         rdf:resource="http://purl.org/dc/dcmitype/StillImage" /></cc:Work></rdf:RDF></metadata><defs
   id="defs43" /><sodipodi:namedview
   pagecolor="#ffffff"
   bordercolor="#666666"
   borderopacity="1"
   objecttolerance="10"
   gridtolerance="10"
   guidetolerance="10"
   inkscape:pageopacity="0"
   inkscape:pageshadow="2"
   inkscape:window-width="1920"
   inkscape:window-height="1001"
   id="namedview41"
   showgrid="false"
   inkscape:zoom="4.1424584"
   inkscape:cx="28.4855"
   inkscape:cy="28.4855"
   inkscape:window-x="-9"
   inkscape:window-y="644"
   inkscape:window-maximized="1"
   inkscape:current-layer="Capa_1" />
<g
   id="g8"
   transform="translate(0,7.4484153)">
	<g
   id="g6">
		<path
   d="m 56.678,24.629 c -0.283,0.016 -0.574,0.023 -0.877,0.023 -0.541,0 -1.086,-0.021 -1.654,-0.069 -0.559,-0.062 -1.069,-0.144 -1.534,-0.246 -0.839,-0.184 -0.581,-0.483 0.493,-0.744 0.748,-0.181 1.416,-0.442 2.006,-0.783 0.502,-0.291 0.927,-0.615 1.275,-0.971 0.621,-0.635 0.612,-1.205 0.267,-1.081 -0.188,0.067 -0.399,0.137 -0.632,0.208 l -1.747,0.401 c -0.648,0.106 -1.296,0.137 -1.95,0.106 -0.307,-0.017 -0.59,-0.043 -0.854,-0.082 -0.467,-0.069 -0.863,-0.326 -0.902,-0.499 -0.025,-0.111 -0.051,-0.215 -0.072,-0.313 l -0.143,-0.563 c -0.373,-1.264 -0.961,-2.442 -1.756,-3.544 -0.793,-1.102 -1.722,-2.065 -2.771,-2.878 -0.643,-0.502 -1.331,-0.916 -2.055,-1.26 -1.227,-0.741 -2.59,-1.263 -4.01,-1.496 0.147,-0.044 0.41,-0.108 0.815,-0.197 0.429,-0.098 0.867,-0.21 1.294,-0.349 C 42.307,10.146 42.68,9.978 42.98,9.779 43.282,9.582 43.363,9.341 43.224,9.06 43.134,8.822 42.831,8.733 42.331,8.782 42.323,8.783 42.313,8.785 42.304,8.786 42.289,8.605 42.253,8.429 42.177,8.254 L 42.115,8.112 41.953,8.127 C 41.436,8.175 40.914,8.245 40.395,8.333 40.292,8.145 39.951,8.038 39.537,8.154 39.479,8.171 39.425,8.197 39.368,8.215 39.372,8.043 39.325,7.867 39.193,7.718 38.875,7.367 38.378,7.524 38.178,7.6 37.661,7.778 37.174,7.974 36.676,8.188 L 36.659,8.194 36.64,8.206 c -0.19,0.118 -0.381,0.237 -0.566,0.344 0,-0.001 0,-0.002 -10e-4,-0.003 C 36.03,8.457 35.95,8.41 35.873,8.376 35.79,8.355 35.698,8.35 35.654,8.357 35.538,8.365 35.457,8.388 35.371,8.412 34.719,8.616 34.161,8.917 33.621,9.317 L 33.607,9.33 33.59,9.348 c -0.959,1.047 -1.854,2.132 -2.678,3.298 -0.794,1.196 -1.469,2.422 -2.124,3.68 -0.332,0.639 -0.626,1.257 -0.918,1.913 l -0.11,0.243 -0.046,0.1 -0.061,0.117 c -0.074,0.121 -0.138,0.198 -0.255,0.284 -0.209,0.158 -0.502,0.227 -0.792,0.208 -0.132,-0.005 -0.265,-0.035 -0.391,-0.076 -0.059,-0.051 -0.094,-0.081 -0.094,-0.081 -0.425,-0.351 -0.846,-0.627 -1.267,-0.865 -0.541,-0.39 -1.071,-0.771 -1.735,-1.068 l 0.029,0.013 C 20.829,15.906 18.453,14.829 16.046,13.838 14.84,13.344 13.629,12.876 12.413,12.423 l -1.83,-0.668 C 10.275,11.647 9.945,11.546 9.62,11.471 9.455,11.432 9.289,11.398 9.117,11.373 9.03,11.36 8.942,11.35 8.846,11.344 8.797,11.342 8.748,11.34 8.686,11.343 c -0.023,0 -0.077,0.008 -0.115,0.015 -0.017,10e-4 -0.083,0.024 -0.119,0.044 -0.003,-0.021 -0.195,0.142 -0.193,0.283 l 10e-4,0.061 c 0.041,1.418 0.572,2.717 1.382,3.829 0.423,0.552 0.923,1.023 1.458,1.44 0.273,0.207 0.546,0.392 0.781,0.581 0.049,0.04 0.097,0.082 0.143,0.123 l -0.826,0.159 -0.262,0.049 -0.065,0.012 -0.032,0.006 -0.068,0.019 -0.008,0.003 -0.016,0.006 -0.063,0.025 c -0.049,0.027 -0.098,0.061 -0.143,0.1 -0.265,0.286 -0.249,0.487 -0.292,0.699 -0.059,0.812 0.095,1.541 0.457,2.259 l 0.02,0.04 0.033,0.03 c 0.938,0.863 1.934,1.572 3.086,2.112 0.298,0.134 0.594,0.223 0.863,0.328 10e-4,0.001 0.002,0.001 0.004,0.002 -0.444,0.109 -0.894,0.245 -1.327,0.403 l -0.026,0.01 -0.02,0.013 c -0.299,0.196 -0.485,0.439 -0.65,0.71 -0.133,0.274 -0.342,0.572 -0.16,1.047 0.409,0.546 0.757,0.872 1.15,1.308 l 0.025,0.028 0.031,0.017 c 0.822,0.45 1.642,0.831 2.535,1.123 0.45,0.125 0.904,0.179 1.358,0.206 0.073,0.016 0.134,0.042 0.21,0.056 0.136,0.026 0.282,0.041 0.425,0.06 -0.099,0.073 -0.199,0.146 -0.294,0.226 -0.024,0.021 -0.048,0.042 -0.072,0.062 -0.037,0.03 -0.073,0.064 -0.11,0.097 -0.166,0.14 -0.332,0.275 -0.482,0.465 -0.036,0.038 -0.073,0.064 -0.109,0.104 -0.037,0.059 -0.081,0.184 -0.083,0.187 -0.001,0.003 -0.001,0.005 -0.002,0.008 -0.154,0.385 -0.093,0.787 -0.033,1.139 0.093,0.427 0.226,0.838 0.449,1.249 l 0.031,0.059 0.06,0.022 c 0.577,0.225 1.16,0.411 1.773,0.57 0.183,0.042 0.375,0.083 0.573,0.11 0.182,0.067 0.367,0.131 0.564,0.169 -1.215,0.878 -2.456,1.691 -3.637,2.322 -0.69,0.376 -1.416,0.582 -2.075,0.747 -0.659,0.161 -1.267,0.254 -1.789,0.285 -0.1,-0.059 1.526,-0.334 3.033,-0.935 1.436,-0.67 2.811,-1.663 2.64,-1.668 -0.908,0.438 -2.084,1.223 -3.474,1.605 -1.42,0.424 -3.082,0.729 -4.703,0.74 C 8.881,36.131 7.313,35.92 5.982,35.58 4.665,35.294 3.664,34.765 2.97,34.525 2.171,34.061 1.369,33.569 0.609,33.053 L 0,33.763 c 2.138,2.39 4.465,4.608 7.205,6.451 1.56,0.957 3.197,1.737 4.885,2.378 -0.689,0.062 -1.378,0.12 -2.062,0.195 C 9.043,42.9 8.065,43.029 7.095,43.21 6.96,43.239 6.825,43.268 6.691,43.294 6.581,43.158 7.171,42.942 7.006,42.813 6.313,42.713 5.644,42.854 5.199,43.08 4.749,43.308 4.547,43.605 4.722,43.708 4.49,43.74 4.243,43.776 3.955,43.911 3.812,43.978 3.652,44.076 3.496,44.259 3.419,44.351 3.343,44.468 3.29,44.614 3.26,44.683 3.245,44.766 3.229,44.846 l -0.005,0.029 -0.001,0.004 0.003,0.08 -10e-4,0.003 -10e-4,0.005 -0.006,0.022 -0.013,0.044 c 0,0.087 0.019,0.226 0.044,0.325 0.019,0.074 0.042,0.153 0.069,0.224 0.053,0.136 0.115,0.252 0.179,0.357 0.127,0.201 0.254,0.354 0.381,0.494 0.249,0.268 0.494,0.479 0.738,0.671 0.972,0.747 1.973,1.241 2.938,1.522 0.327,-0.047 -0.466,-0.46 0.057,-0.442 2.087,1.555 5.834,1.52 6.019,0.846 -1.413,-0.152 -2.84,-0.497 -4.254,-0.969 -1.137,-0.391 -2.277,-0.844 -3.367,-1.42 0.083,0.037 0.165,0.076 0.249,0.111 0.852,0.352 1.731,0.617 2.622,0.838 1.782,0.438 3.612,0.691 5.459,0.847 3.698,0.302 7.468,0.19 11.212,-0.028 3.748,-0.225 7.468,-0.559 11.123,-0.82 l 5.444,-0.364 c 0.905,-0.062 1.808,-0.121 2.729,-0.222 0.463,-0.053 0.928,-0.111 1.422,-0.22 0.248,-0.056 0.504,-0.122 0.787,-0.233 0.279,-0.127 0.604,-0.234 0.992,-0.71 0.104,-0.346 0.069,-0.67 -0.025,-0.821 -0.092,-0.156 -0.201,-0.161 -0.307,-0.102 -0.195,0.152 -0.529,0.436 -0.89,0.447 -0.699,0.068 -1.674,-0.01 -2.95,-0.008 -2.529,-0.017 -6.08,0.095 -9.314,0.803 -0.416,-0.263 0.277,-0.571 -1.084,-0.797 -5.306,-0.117 -11.133,1.229 -16.777,1.328 -1.147,-0.965 -5.274,-1.442 -7.021,-0.971 -0.182,0.477 2.69,0.507 2.579,0.842 -1.055,0.412 -2.822,0.068 -4.45,-0.367 L 5.655,45.574 C 5.64,45.568 5.623,45.564 5.608,45.557 5.185,45.381 4.683,45.108 4.566,44.895 4.561,44.893 4.562,44.886 4.562,44.879 4.585,44.88 4.59,44.853 4.643,44.813 c 0.105,-0.099 0.3,-0.208 0.504,-0.297 0.415,-0.183 0.893,-0.319 1.373,-0.438 1.944,-0.458 4.011,-0.688 6.077,-0.894 0.314,-0.03 0.631,-0.051 0.946,-0.077 0.905,0.292 1.819,0.555 2.751,0.764 3.196,0.676 6.45,0.937 9.677,0.641 2.9,-0.273 5.703,-0.868 8.367,-1.823 2.709,0.128 5.396,0.342 7.994,0.783 0.521,0.09 1.044,0.178 1.557,0.293 0.758,0.173 2.16,0.356 2.838,0.712 0.361,0.158 0.41,0.485 0.461,0.376 0.033,-0.012 0.029,-0.267 -0.148,-0.46 -0.126,-0.154 -0.346,-0.3 -0.609,-0.438 -0.062,-0.034 -0.121,-0.065 -0.193,-0.1 -0.031,-0.015 -0.051,-0.03 -0.083,-0.044 -0.04,-0.018 -0.082,-0.026 -0.123,-0.042 -0.086,-0.036 -0.157,-0.072 -0.257,-0.107 -0.178,-0.062 -0.356,-0.114 -0.536,-0.167 -0.056,-0.017 -0.112,-0.036 -0.169,-0.052 -0.322,-0.092 -0.646,-0.175 -0.971,-0.249 -0.141,-0.034 -0.309,-0.063 -0.484,-0.09 -1.096,-0.223 -2.207,-0.371 -3.322,-0.516 -1.549,-0.18 -3.113,-0.294 -4.682,-0.385 1.178,-0.534 1.447,-0.757 1.507,-0.841 0.03,-0.052 -0.004,-0.072 0.005,-0.112 0.684,-0.292 1.357,-0.602 2.012,-0.94 2.869,-1.489 5.346,-3.374 7.424,-5.659 1.619,-1.765 2.842,-3.716 3.668,-5.845 0.399,-1.029 1.521,-1.874 2.613,-2.029 0.807,-0.115 1.512,-0.305 2.117,-0.573 0.497,-0.221 0.952,-0.46 1.366,-0.717 0.726,-0.456 0.839,-0.884 0.355,-0.858 z m -42.69,-1.7 c -1.092,-0.503 -2.1,-1.214 -2.993,-2.033 -0.151,-0.292 -0.261,-0.606 -0.334,-0.93 -0.01,-0.046 -0.02,-0.092 -0.028,-0.139 -0.061,-0.326 -0.086,-0.659 -0.06,-0.99 0.022,-0.173 0.053,-0.362 0.179,-0.493 0.136,-0.122 0.337,-0.101 0.505,-0.15 l 1.053,-0.206 h 10e-4 c 0.075,-0.009 0.175,-0.017 0.203,-0.089 0.024,-0.072 -0.034,-0.149 -0.08,-0.21 -0.1,-0.126 -0.226,-0.232 -0.351,-0.336 -0.254,-0.204 -0.526,-0.386 -0.788,-0.584 -0.518,-0.401 -1,-0.855 -1.403,-1.378 C 9.114,14.335 8.589,13.055 8.558,11.72 v -0.004 l 10e-4,-10e-4 c 0.117,-0.129 0.185,-0.056 0.272,-0.074 0.083,0.005 0.164,0.014 0.244,0.026 0.161,0.023 0.32,0.055 0.478,0.092 0.315,0.072 0.627,0.166 0.933,0.272 l 1.822,0.661 c 0.465,0.172 0.926,0.361 1.39,0.539 -0.671,-0.251 -1.362,-0.506 -2.091,-0.768 -1.039,-0.374 -1.901,-0.582 -1.912,-0.475 -0.007,0.068 -0.01,0.133 -0.01,0.194 0,0.936 0.316,1.949 0.946,3.022 0.474,0.79 1.176,1.517 2.112,2.179 0.902,0.638 1.379,0.94 0.954,0.965 -0.23,0.014 -0.485,0.049 -0.763,0.107 -0.321,0.062 -0.639,0.121 -0.954,0.176 -0.528,0.092 -0.828,0.986 -0.34,1.869 0.286,0.516 0.654,0.999 1.103,1.447 0.451,0.45 1.057,0.847 1.812,1.19 -0.192,-0.064 -0.384,-0.128 -0.567,-0.208 z m 1.425,0.557 c 0.014,0.005 0.025,0.009 0.039,0.014 0.02,0.026 0.041,0.04 0.06,0.084 0.024,0.14 -0.082,0.186 -0.107,0.199 -0.042,0.021 -0.067,0.02 -0.092,0.026 -0.051,0 -0.06,-0.005 -0.039,-0.023 0.066,-0.018 0.155,-0.017 0.183,-0.171 -0.05,-0.134 -0.132,-0.141 -0.197,-0.187 -0.031,-0.016 -0.063,-0.026 -0.094,-0.04 0.084,0.031 0.159,0.068 0.247,0.098 z m 0.75,0.653 c -0.438,0.07 -0.818,0.167 -1.143,0.289 -0.294,0.109 -0.573,0.245 -0.837,0.406 -0.439,0.268 -0.569,0.864 -0.306,1.215 0.156,0.208 0.326,0.411 0.51,0.608 0.125,0.132 0.277,0.256 0.424,0.382 -0.28,-0.111 -0.563,-0.222 -0.821,-0.34 l 0.037,0.035 -0.05,-0.04 c 0.004,0.002 0.009,0.003 0.013,0.005 l -0.377,-0.351 c 0.145,0.075 0.018,-0.14 -0.287,-0.541 l -0.245,-0.326 c 0.001,-0.005 -0.014,-0.038 0.029,-0.175 0.073,-0.231 0.31,-0.577 0.551,-0.747 -0.015,0.005 -0.032,0.011 -0.046,0.017 l 0.062,-0.03 c -0.005,0.004 -0.011,0.01 -0.016,0.014 0.371,-0.139 0.793,-0.284 1.212,-0.407 0.112,-0.033 0.199,-0.054 0.338,-0.085 0.07,-0.018 0.14,-0.034 0.241,-0.08 0.053,-0.039 0.129,-0.039 0.224,-0.223 0.022,-0.066 0.023,-0.123 0.017,-0.176 0.815,0.3 1.051,0.456 0.47,0.55 z m 3.105,5.007 c -0.438,0.289 -0.734,0.6 -0.888,0.934 -0.128,0.271 -0.19,0.529 -0.198,0.779 -0.018,-0.052 -0.043,-0.104 -0.058,-0.154 -0.098,-0.265 -0.091,-0.522 -0.128,-0.646 -10e-4,0.002 -0.003,0.004 -0.005,0.008 -0.012,-0.032 -0.048,-0.104 -0.048,-0.104 l 0.013,0.016 0.025,0.028 c 0.007,0.012 0.01,0.034 0.015,0.052 0.006,-0.012 0.011,-0.021 0.025,-0.039 0.037,-0.05 0.092,-0.112 0.148,-0.173 0.115,-0.124 0.246,-0.251 0.38,-0.376 0.266,-0.249 0.559,-0.504 0.829,-0.718 l 0.171,-0.136 c 0.112,-0.003 0.223,-0.004 0.339,-0.012 0.3,-0.022 -0.018,0.143 -0.62,0.541 z M 4.543,44.896 C 4.51,44.94 4.508,44.874 4.496,44.851 4.566,44.905 4.524,44.868 4.551,44.88 4.549,44.884 4.55,44.878 4.543,44.896 Z M 16.762,36.05 c 1.648,-0.873 3.109,-1.888 4.557,-2.967 0.062,0 0.123,-0.005 0.185,-0.008 -0.858,0.686 -1.728,1.315 -2.624,1.927 -0.856,0.56 -1.724,1.162 -2.753,1.563 -1.14,0.343 -2.293,0.562 -3.458,0.647 1.406,-0.2 2.782,-0.579 4.093,-1.162 z m 20.14,-26.9 c 0.249,-0.44 -0.471,-0.463 -1.288,0.179 -0.49,0.385 -0.951,0.81 -1.381,1.275 -0.868,0.936 -1.642,1.971 -2.332,3.092 -0.69,1.123 -1.339,2.3 -1.956,3.531 -0.307,0.617 -0.592,1.235 -0.86,1.855 -0.439,1.014 -1.246,1.427 -1.857,0.902 -0.232,-0.199 -0.435,-0.374 -0.613,-0.527 0.33,0.015 0.673,-0.06 0.938,-0.255 0.291,-0.191 0.415,-0.525 0.56,-0.847 0.286,-0.643 0.586,-1.275 0.911,-1.901 0.647,-1.247 1.327,-2.479 2.104,-3.654 0.811,-1.15 1.707,-2.238 2.656,-3.274 l 10e-4,-10e-4 v 0 c 0.502,-0.374 1.062,-0.673 1.658,-0.859 0.075,-0.022 0.151,-0.041 0.229,-0.045 0.053,-0.011 0.147,-0.001 0.166,0.059 -0.017,0.006 -0.035,0.015 -0.043,0.018 -0.012,0.004 0.002,-0.003 0.004,10e-4 0.014,-0.002 0.026,0.004 0.041,0.006 0,0.007 0.004,0.012 0,0.02 -0.02,0.074 -0.082,0.141 -0.072,0.216 0.056,0.052 0.146,-0.011 0.211,-0.034 0.014,-0.007 0.027,-0.017 0.041,-0.024 0.007,0.036 0.01,0.059 0.009,0.066 10e-4,-0.002 0,-0.004 0.004,-0.005 L 36.07,8.866 36.076,8.851 c 0.242,-0.129 0.476,-0.276 0.708,-0.421 0.486,-0.209 0.979,-0.407 1.48,-0.58 0.235,-0.089 0.547,-0.16 0.735,0.047 0.106,0.115 0.125,0.271 0.093,0.418 -0.233,0.08 -0.472,0.151 -0.699,0.252 -0.369,0.168 -0.727,0.361 -1.07,0.58 -0.569,0.36 -0.67,0.442 -0.421,0.003 z m 1.784,0.49 c 0.277,-0.124 0.572,-0.265 0.883,-0.421 0.309,-0.152 0.557,-0.325 0.744,-0.521 0.033,-0.035 0.053,-0.07 0.072,-0.104 0.518,-0.088 1.039,-0.149 1.562,-0.2 0.058,0.135 0.085,0.281 0.097,0.428 -0.431,0.053 -0.888,0.14 -1.4,0.275 -0.621,0.16 -1.207,0.344 -1.758,0.544 C 38.677,9.716 38.494,9.78 38.339,9.833 38.033,9.938 38.194,9.86 38.686,9.64 Z m 0.5,1.632 c -0.127,0 -0.256,0.002 -0.385,0.008 -0.213,0.009 -0.095,-0.076 0.266,-0.202 0.035,-0.013 0.066,-0.023 0.101,-0.035 0.709,0.077 1.408,0.226 2.085,0.442 -0.681,-0.136 -1.37,-0.213 -2.067,-0.213 z"
   id="path2"
   inkscape:connector-curvature="0" />
		<path
   d="M 8.263,11.961 8.26,11.747 c 0,-0.009 -0.003,-0.017 -0.003,-0.025 z"
   id="path4"
   inkscape:connector-curvature="0" />
	</g>
</g>
<g
   id="g10">
</g>
<g
   id="g12">
</g>
<g
   id="g14">
</g>
<g
   id="g16">
</g>
<g
   id="g18">
</g>
<g
   id="g20">
</g>
<g
   id="g22">
</g>
<g
   id="g24">
</g>
<g
   id="g26">
</g>
<g
   id="g28">
</g>
<g
   id="g30">
</g>
<g
   id="g32">
</g>
<g
   id="g34">
</g>
<g
   id="g36">
</g>
<g
   id="g38">
</g>
</svg>