<?xml version="1.0" encoding="UTF-8" standalone="no"?>
<svg
   xmlns:dc="http://purl.org/dc/elements/1.1/"
   xmlns:cc="http://creativecommons.org/ns#"
   xmlns:rdf="http://www.w3.org/1999/02/22-rdf-syntax-ns#"
   xmlns:svg="http://www.w3.org/2000/svg"
   xmlns="http://www.w3.org/2000/svg"
   xmlns:sodipodi="http://sodipodi.sourceforge.net/DTD/sodipodi-0.dtd"
   xmlns:inkscape="http://www.inkscape.org/namespaces/inkscape"
   version="1.1"
   x="0px"
   y="0px"
   viewBox="0 0 110 137.5"
   enable-background="new 0 0 110 110"
   xml:space="preserve"
   id="svg8"
   sodipodi:docname="ufo.svg"
   inkscape:version="0.92.4 (5da689c313, 2019-01-14)"><metadata
     id="metadata14"><rdf:RDF><cc:Work
         rdf:about=""><dc:format>image/svg+xml</dc:format><dc:type
           rdf:resource="http://purl.org/dc/dcmitype/StillImage" /><dc:title></dc:title></cc:Work></rdf:RDF></metadata><defs
     id="defs12" /><sodipodi:namedview
     pagecolor="#ffffff"
     bordercolor="#666666"
     borderopacity="1"
     objecttolerance="10"
     gridtolerance="10"
     guidetolerance="10"
     inkscape:pageopacity="0"
     inkscape:pageshadow="2"
     inkscape:window-width="1920"
     inkscape:window-height="1001"
     id="namedview10"
     showgrid="false"
     showguides="true"
     inkscape:guide-bbox="true"
     inkscape:zoom="4.8546095"
     inkscape:cx="-4.7875135"
     inkscape:cy="63.687213"
     inkscape:window-x="-9"
     inkscape:window-y="644"
     inkscape:window-maximized="1"
     inkscape:current-layer="svg8"
     inkscape:snap-global="false"><sodipodi:guide
       position="120.91601,136.98321"
       orientation="1,0"
       id="guide830"
       inkscape:locked="false" /><sodipodi:guide
       position="52.733387,138.21915"
       orientation="1,0"
       id="guide832"
       inkscape:locked="false" /></sodipodi:namedview><path
     style="opacity:1;fill:#ffe680;fill-opacity:1;stroke:none;stroke-width:0.81347078;stroke-miterlimit:4;stroke-dasharray:none;stroke-opacity:1"
     d="m 98.52302,128.884 c -6.007506,9.99892 -77.058813,11.52124 -90.429516,-0.78391 -2.091054,-1.9244 20.565175,-88.560148 22.452887,-90.719198 1.887712,-2.15905 43.0705,-1.493747 44.905775,0.726988 1.835276,2.220738 24.958574,88.61706 23.070854,90.77612 z"
     id="path827"
     inkscape:connector-curvature="0"
     sodipodi:nodetypes="csssc" /><path
     d="M 71.60069,16.293924 C 68.836821,7.8370221 60.624415,1.9504297 51.339117,2.5130748 42.052956,3.0757723 34.611425,9.9109192 32.889791,18.639622 19.181034,20.927058 9.9087853,24.450942 10.115344,27.859754 l 0.342954,5.659766 c 0.293514,4.843828 19.606248,7.613986 43.135507,6.188226 23.53012,-1.425814 42.366201,-6.507611 42.072687,-11.35144 L 95.323537,22.696541 C 95.116115,19.287781 85.485345,16.90933 71.60069,16.293924 Z M 52.933139,28.819115 C 42.601368,29.445173 34.054226,27.13018 33.843272,23.648842 33.217217,13.31707 41.085825,4.4342728 51.417597,3.8082162 61.749367,3.1821597 70.632975,11.049852 71.259032,21.381623 c 0.210081,3.481391 -7.994122,6.811435 -18.325893,7.437492 z"
     id="path2"
     inkscape:connector-curvature="0"
     style="fill:#000000;stroke:#000000;stroke-width:0.86501098" /></svg>