<?xml version="1.0" encoding="UTF-8" standalone="no"?>
<!-- Created with Inkscape (http://www.inkscape.org/) -->

<svg
   xmlns:dc="http://purl.org/dc/elements/1.1/"
   xmlns:cc="http://creativecommons.org/ns#"
   xmlns:rdf="http://www.w3.org/1999/02/22-rdf-syntax-ns#"
   xmlns:svg="http://www.w3.org/2000/svg"
   xmlns="http://www.w3.org/2000/svg"
   xmlns:sodipodi="http://sodipodi.sourceforge.net/DTD/sodipodi-0.dtd"
   xmlns:inkscape="http://www.inkscape.org/namespaces/inkscape"
   width="100"
   height="100"
   viewBox="0 0 26.458333 26.458334"
   version="1.1"
   id="svg8"
   inkscape:version="0.92.4 (5da689c313, 2019-01-14)"
   sodipodi:docname="alien-ufo.svg"
   enable-background="new">
  <defs
     id="defs2">
    <filter
       style="color-interpolation-filters:sRGB;"
       inkscape:label="Clean Edges"
       id="filter881">
      <feGaussianBlur
         stdDeviation="1.72534"
         result="blur"
         id="feGaussianBlur875" />
      <feComposite
         in="SourceGraphic"
         in2="blur"
         operator="in"
         result="composite1"
         id="feComposite877" />
      <feComposite
         in="composite1"
         in2="composite1"
         k2="1"
         operator="in"
         result="composite2"
         id="feComposite879" />
    </filter>
    <filter
       inkscape:collect="always"
       style="color-interpolation-filters:sRGB"
       id="filter1542"
       x="-0.12094637"
       width="1.2418927"
       y="-0.11906832"
       height="1.2381366">
      <feGaussianBlur
         inkscape:collect="always"
         stdDeviation="1.0674078"
         id="feGaussianBlur1544" />
    </filter>
  </defs>
  <sodipodi:namedview
     id="base"
     pagecolor="#ffffff"
     bordercolor="#666666"
     borderopacity="1.0"
     inkscape:pageopacity="0.0"
     inkscape:pageshadow="2"
     inkscape:zoom="3.959798"
     inkscape:cx="27.895261"
     inkscape:cy="48.943659"
     inkscape:document-units="px"
     inkscape:current-layer="layer1"
     showgrid="false"
     units="px"
     inkscape:window-width="1920"
     inkscape:window-height="1001"
     inkscape:window-x="-9"
     inkscape:window-y="644"
     inkscape:window-maximized="1"
     inkscape:snap-object-midpoints="true"
     inkscape:snap-bbox="true"
     inkscape:snap-bbox-midpoints="true"
     inkscape:snap-global="false"
     showguides="true"
     inkscape:guide-bbox="true">
    <sodipodi:guide
       position="13.296659,12.828938"
       orientation="1,0"
       id="guide1538"
       inkscape:locked="false" />
    <sodipodi:guide
       position="11.358955,13.363477"
       orientation="0,1"
       id="guide1540"
       inkscape:locked="false" />
  </sodipodi:namedview>
  <metadata
     id="metadata5">
    <rdf:RDF>
      <cc:Work
         rdf:about="">
        <dc:format>image/svg+xml</dc:format>
        <dc:type
           rdf:resource="http://purl.org/dc/dcmitype/StillImage" />
        <dc:title />
      </cc:Work>
    </rdf:RDF>
  </metadata>
  <g
     inkscape:label="Layer 1"
     inkscape:groupmode="layer"
     id="layer1"
     transform="translate(0,-270.54165)">
    <ellipse
       style="opacity:0.6;fill:#47ff8b;fill-opacity:1;stroke:none;stroke-width:0.18218057;stroke-miterlimit:4;stroke-dasharray:none;stroke-opacity:1;filter:url(#filter1542)"
       id="path1536"
       cx="13.296659"
       cy="283.63651"
       rx="10.590556"
       ry="10.7576" />
    <g
       id="g1495"
       transform="matrix(0.21982482,0,0,0.21982482,-1.0227123,269.7519)">
      <path
         inkscape:connector-curvature="0"
         d="m 79.317,24.075 c 1.5,2.918 -1.769,7.115 -4.241,8.711 C 71.957,34.7 62.612,37.1 64.538,30.63 c 1.079,-3.651 6.557,-7.4 10.063,-8.238 1.984,-0.459 3.724,-0.273 4.716,1.683 z"
         id="path1475" />
      <path
         inkscape:connector-curvature="0"
         d="m 80.725,100.423 c 3.221,1.05 5.866,3.84 3.437,7.146 a 9.554,9.554 0 0 1 -9.215,3.465 1.165,1.165 0 0 1 -0.719,-0.433 c -3.191,-0.258 -4.759,-3.737 -3.234,-6.8 0.847,-1.725 2.688,-2.515 4.469,-2.99 a 18.027,18.027 0 0 1 2.718,-0.56 6,6 0 0 1 2.544,0.172 z m -6.625,3.939 c -1.207,0.791 -1.366,3.81 0.6,3.5 a 1.4,1.4 0 0 1 1.366,0.516 6.836,6.836 0 0 0 5.3,-1.854 c 1.438,-1.438 1.007,-2.6 -0.949,-3.249 a 8.462,8.462 0 0 0 -6.317,1.087 z"
         id="path1477" />
      <path
         inkscape:connector-curvature="0"
         d="m 59.1,41.038 c 0.375,-1.768 3.077,-1.021 2.7,0.733 -0.043,0.259 -0.187,0.5 -0.229,0.719 -0.375,1.782 -3.078,1.021 -2.7,-0.733 0.046,-0.257 0.191,-0.504 0.229,-0.719 z"
         id="path1479" />
      <path
         inkscape:connector-curvature="0"
         d="m 57.38,40.65 a 1.434,1.434 0 0 1 0,1.983 1.406,1.406 0 0 1 -1.985,0 c -0.171,-0.215 -0.316,-0.5 -0.473,-0.718 a 1.4028999,1.4028999 0 0 1 1.984,-1.984 c 0.172,0.23 0.301,0.503 0.474,0.719 z"
         id="path1481" />
      <path
         inkscape:connector-curvature="0"
         d="m 52.794,20.308 c 5.506,-0.992 2.96,10.307 2.573,12.608 -5.836,1.495 -9.014,-11.443 -2.573,-12.608 z"
         id="path1483" />
      <path
         inkscape:connector-curvature="0"
         d="m 44.039,108.776 c 2.127,0 3.751,-1.207 3.1,-3.665 -0.517,-1.97 -2.343,-4.027 -4.6,-3.364 -3.119,0.919 -3.58,8.165 0.3,6.828 a 1.121,1.121 0 0 1 1.2,0.201 z m 5.981,-3.421 c 0.417,4.039 -2.675,6.6 -6.57,6.209 a 1.256,1.256 0 0 1 -0.417,-0.129 5.027,5.027 0 0 1 -1.811,0.145 c -5.391,-0.677 -5.306,-11.731 1.193,-12.652 a 6.277,6.277 0 0 1 0.876,-0.056 7.073,7.073 0 0 1 6.729,6.483 z"
         id="path1485" />
      <path
         inkscape:connector-curvature="0"
         d="m 93.246,71.543 c 1.38,-1.51 0.749,-3.853 -0.071,-5.506 -1.265,-2.53 -4.055,-5.275 -7.015,-3.22 A 5.876,5.876 0 0 0 84,68.51 c 0.5,2.53 2.2,3.594 4.73,3.364 a 1.107,1.107 0 0 1 1.034,0.373 c 1.326,0.101 2.763,0.072 3.482,-0.704 z m 22.4,35.853 c 0.806,-1.654 1.338,-4.628 -1.279,-4.457 a 2.138,2.138 0 0 1 -0.316,-0.042 24.99,24.99 0 0 1 -4.4,6.641 c 2.357,0.072 5.059,-0.287 5.993,-2.138 z m -39.693,10.466 c -10.235,-0.26 -20.787,-0.274 -31.181,-1.179 -0.143,3.119 7.116,2.127 9.042,2.113 a 124.578,124.578 0 0 1 12.651,0.935 c 4,0.387 18.229,3.693 19.766,-1.755 -3.392,0.087 -6.842,-0.014 -10.278,-0.114 z M 36.736,73.541 c 2.573,-0.215 6.714,-0.331 6.283,-4.04 -0.316,-2.731 -2.574,-5.06 -5.449,-4.326 -2.142,0.546 -4.916,1.94 -5.276,4.4 -0.3,2.041 0.92,5.333 3.493,4.168 a 1.424,1.424 0 0 1 0.7,-0.129 c 0.091,-0.014 0.162,-0.058 0.249,-0.073 z M 61.965,8.577 C 48.984,13.149 41.911,26 43.723,39.687 c 0.574,4.37 2.659,11.673 7.7,12.894 1.884,0.446 3.838,0.475 5.722,0.906 a 7.282,7.282 0 0 1 3.967,1.984 1.473,1.473 0 0 1 0.791,0.561 8.039,8.039 0 0 1 1.207,2.185 c 0.576,1.826 -0.2,3.263 -2.1,5.046 -5.75,5.39 -4.082,14 -3.277,21.118 1.653,-0.145 3.307,-0.288 4.959,-0.417 3.451,-0.274 6.872,-0.5 10.307,-0.691 V 83.2 C 74.035,78.672 78.031,61.233 69.32,60.918 67.709,60.86 66.977,59.58 66.53,58.129 66.2,57.007 66.042,55.785 65.811,54.952 a 1.247,1.247 0 0 1 0.36,-1.309 1.42,1.42 0 0 1 1.237,-0.949 c 7.734,-0.7 16.847,-2.4 20.959,-9.847 A 27.518,27.518 0 0 0 90.832,23.2 C 89.232,16.6 86.044,9.572 78.886,7.66 A 28.955,28.955 0 0 0 61.965,8.577 Z M 19.011,108.589 a 25.537,25.537 0 0 1 -4.341,-6.756 c -2.5,0.732 -4.084,5.347 -2.833,7.4 1.682,2.778 5.075,1.11 7.174,-0.644 z M 12.873,96.14 c 1.38,-7.677 7.547,-9.128 14.461,-9.4 3.7,-0.129 7.389,-0.373 11.1,-0.661 a 47.036,47.036 0 0 1 -2.3,-9.546 c -3.38,0.834 -6.211,-1.624 -6.628,-5.261 -0.489,-4.385 3.135,-8.036 7.317,-8.8 a 7.335,7.335 0 0 1 8.927,6.44 6.213,6.213 0 0 1 -2.314,5.822 7.931,7.931 0 0 1 -4.528,1.453 c 0.244,3.248 1.394,6.3 2.3,9.415 a 1.522,1.522 0 0 1 0.029,0.259 c 4.571,-0.388 9.157,-0.819 13.728,-1.236 -0.574,-5.219 -1.8,-11.587 -0.2,-16.719 a 11.917,11.917 0 0 1 2.2,-4.486 C 58,62.256 59.811,61.15 60.113,59.64 a 1.217,1.217 0 0 1 -0.8,-1.222 c 0.028,-3.22 -6.526,-2.343 -8.625,-3.134 A 13.586,13.586 0 0 1 43.772,49.031 30.577,30.577 0 0 1 41.645,27.956 C 44.973,13.925 55.927,4.7 70.505,4.035 76.428,3.776 83.342,4.897 87.438,9.67 a 30.839,30.839 0 0 1 6.916,18.876 c 0.173,6.756 -1.28,14.36 -6.268,19.32 -5.175,5.161 -12.248,6.771 -19.306,7.505 0.258,1.192 0.589,2.414 1.882,2.831 a 3.684,3.684 0 0 1 1.567,0.662 c 1.711,1.6 3.824,3.565 4.471,5.922 1.654,6.024 0.546,12.349 -0.8,18.344 q 3.837,-0.172 7.676,-0.216 a 1.026,1.026 0 0 1 -0.071,-0.3 c -0.087,-2.99 1.767,-5.491 2.1,-8.337 -5.793,-2.171 -6.167,-12.22 0.417,-14.491 5.032,-1.74 9.128,2.3 10.379,6.9 0.6,2.171 0.892,5.247 -1.165,6.828 -2.113,1.639 -4.426,1.481 -6.928,1.409 -0.5,2.617 -2.071,4.974 -2,7.691 a 1.606,1.606 0 0 1 -0.042,0.274 c 4.858,0 9.717,0.187 14.605,0.632 7.03,0.633 12.492,0.46 15.512,7.144 a 1.6,1.6 0 0 1 0.516,0.82 c 1.194,2.027 0.044,4.614 -0.891,6.915 -0.244,0.589 -0.488,1.164 -0.733,1.754 3.666,0.345 4.428,4.471 3.235,7.662 -1.726,4.6 -7.5,4.815 -11.731,4.241 -5.276,3.938 -11.314,5.362 -17.624,5.793 -0.892,9.832 -18.488,5.075 -24.6,4.5 -5.779,-0.546 -12.291,0.188 -17.97,-0.934 -3,-0.575 -4.873,-2.1 -4.6,-4.988 a 127.759,127.759 0 0 1 -14.477,-2.271 15.319,15.319 0 0 1 -6.5,-3.594 c -3.622,3.076 -9.79,4.8 -11.975,-0.748 -1.351,-3.435 0.863,-9.531 4.715,-10.71 A 15.508,15.508 0 0 1 13.432,97.566 1.413,1.413 0 0 1 12.873,96.14 Z m 3.551,-1.9 c 7.517,-0.689 14.778,0.647 22.31,1.265 7.864,0.647 15.857,0.4 23.749,0.417 17.309,0.029 33.883,-2.028 50.818,-5.219 -2.258,-3.881 -6.1,-3.808 -10.667,-4.225 -4.341,-0.389 -8.711,-0.777 -13.081,-0.864 -9.662,-0.172 -19.278,0.533 -28.91,1.323 -9.488,0.762 -18.962,1.582 -28.45,2.343 -5.793,0.476 -13.081,-0.487 -15.769,4.962 z m -0.231,2.8 c 0.5,3.738 3.134,7.49 5.621,10.049 4.3,4.442 8.31,4.7 14.319,5.449 1.638,0.2 3.278,0.4 4.93,0.589 a 299.665,299.665 0 0 0 30.663,1.855 c 1.525,0.014 3.106,0.071 4.73,0.143 8.194,0.373 17.265,1.092 24.439,-2.53 a 23.282,23.282 0 0 0 11.155,-12.046 c 0.474,-1.122 2.99,-5.464 2.66,-7.261 A 297.165,297.165 0 0 1 78.066,98.34 c -3.838,0.244 -7.706,0.387 -11.615,0.387 -7.649,0.014 -15.468,0.36 -23.145,-0.071 -0.863,-0.044 -1.739,-0.1 -2.6,-0.173 -8.167,-0.675 -16.29,-2.373 -24.513,-1.438 z"
         id="path1487" />
      <path
         inkscape:connector-curvature="0"
         d="m 68.955,31.466 c 0.682,-0.386 1.129,-1.058 1.8,-1.437 A 1.4020936,1.4020936 0 0 0 69.34,27.608 c -0.682,0.387 -1.129,1.059 -1.8,1.438 a 1.401662,1.401662 0 0 0 1.415,2.42 z"
         id="path1489" />
      <path
         inkscape:connector-curvature="0"
         d="m 51.033,26.3 a 2.287,2.287 0 0 0 0.769,1.71 1.4021927,1.4021927 0 0 0 1.983,-1.983 c -0.5,-0.5 0.057,0.832 0.05,0.273 a 1.4,1.4 0 0 0 -2.8,0 z"
         id="path1491" />
      <path
         inkscape:connector-curvature="0"
         d="m 89.811,112.52 c 6.25,-0.223 12.257,-3.834 16.086,-8.676 1.107,-1.4 -0.862,-3.4 -1.983,-1.982 -3.365,4.257 -8.562,7.657 -14.1,7.856 -1.8,0.065 -1.808,2.867 0,2.8 z"
         id="path1493" />
    </g>
  </g>
</svg>
