<?xml version="1.0" encoding="UTF-8" standalone="no"?>
<!-- Created with Inkscape (http://www.inkscape.org/) -->

<svg
   xmlns:dc="http://purl.org/dc/elements/1.1/"
   xmlns:cc="http://creativecommons.org/ns#"
   xmlns:rdf="http://www.w3.org/1999/02/22-rdf-syntax-ns#"
   xmlns:svg="http://www.w3.org/2000/svg"
   xmlns="http://www.w3.org/2000/svg"
   xmlns:sodipodi="http://sodipodi.sourceforge.net/DTD/sodipodi-0.dtd"
   xmlns:inkscape="http://www.inkscape.org/namespaces/inkscape"
   width="100"
   height="100"
   viewBox="0 0 26.458333 26.458334"
   version="1.1"
   id="svg8"
   inkscape:version="0.92.4 (5da689c313, 2019-01-14)"
   sodipodi:docname="lizard-people.svg"
   enable-background="new">
  <defs
     id="defs2">
    <filter
       style="color-interpolation-filters:sRGB;"
       inkscape:label="Clean Edges"
       id="filter881">
      <feGaussianBlur
         stdDeviation="1.72534"
         result="blur"
         id="feGaussianBlur875" />
      <feComposite
         in="SourceGraphic"
         in2="blur"
         operator="in"
         result="composite1"
         id="feComposite877" />
      <feComposite
         in="composite1"
         in2="composite1"
         k2="1"
         operator="in"
         result="composite2"
         id="feComposite879" />
    </filter>
    <filter
       inkscape:collect="always"
       style="color-interpolation-filters:sRGB"
       id="filter1542"
       x="-0.12094637"
       width="1.2418927"
       y="-0.11906832"
       height="1.2381366">
      <feGaussianBlur
         inkscape:collect="always"
         stdDeviation="1.0674078"
         id="feGaussianBlur1544" />
    </filter>
  </defs>
  <sodipodi:namedview
     id="base"
     pagecolor="#ffffff"
     bordercolor="#666666"
     borderopacity="1.0"
     inkscape:pageopacity="0.0"
     inkscape:pageshadow="2"
     inkscape:zoom="3.959798"
     inkscape:cx="27.895261"
     inkscape:cy="48.943659"
     inkscape:document-units="px"
     inkscape:current-layer="layer1"
     showgrid="false"
     units="px"
     inkscape:window-width="1920"
     inkscape:window-height="1001"
     inkscape:window-x="-9"
     inkscape:window-y="644"
     inkscape:window-maximized="1"
     inkscape:snap-object-midpoints="true"
     inkscape:snap-bbox="true"
     inkscape:snap-bbox-midpoints="true"
     inkscape:snap-global="false"
     showguides="true"
     inkscape:guide-bbox="true">
    <sodipodi:guide
       position="13.296659,12.828938"
       orientation="1,0"
       id="guide1538"
       inkscape:locked="false" />
    <sodipodi:guide
       position="11.358955,13.363477"
       orientation="0,1"
       id="guide1540"
       inkscape:locked="false" />
  </sodipodi:namedview>
  <metadata
     id="metadata5">
    <rdf:RDF>
      <cc:Work
         rdf:about="">
        <dc:format>image/svg+xml</dc:format>
        <dc:type
           rdf:resource="http://purl.org/dc/dcmitype/StillImage" />
        <dc:title></dc:title>
      </cc:Work>
    </rdf:RDF>
  </metadata>
  <g
     inkscape:label="Layer 1"
     inkscape:groupmode="layer"
     id="layer1"
     transform="translate(0,-270.54165)">
    <ellipse
       style="opacity:0.6;fill:#47ff8b;fill-opacity:1;stroke:none;stroke-width:0.18218057;stroke-miterlimit:4;stroke-dasharray:none;stroke-opacity:1;filter:url(#filter1542)"
       id="path1536"
       cx="13.296659"
       cy="283.63651"
       rx="10.590556"
       ry="10.7576" />
    <g
       id="g920"
       transform="matrix(0.21770463,0,0,0.21770463,-0.19437663,269.80872)">
      <path
         inkscape:connector-curvature="0"
         d="m 82.216,38.928 c 3.914,-2.289 7.126,-2.289 6.671,3.225 -0.469,4.217 -4.7,8.56 -8.27,10.559 -2.287,1.281 -7.14,4.231 -7.361,-0.179 C 73.05,48.48 78.88,40.9 82.216,38.928 Z"
         id="path898" />
      <path
         inkscape:connector-curvature="0"
         d="m 65.758,61.175 a 1.062,1.062 0 0 1 -0.717,1.268 4.888,4.888 0 0 1 -1.889,0.262 1.034,1.034 0 0 1 0,-2.067 3.4,3.4 0 0 0 1.338,-0.194 1.041,1.041 0 0 1 1.268,0.731 z"
         id="path900" />
      <path
         inkscape:connector-curvature="0"
         d="m 58.494,61.188 c -1.185,-0.592 -0.138,-2.384 1.047,-1.792 a 6.56,6.56 0 0 1 1.351,0.855 c 1.021,0.882 -0.455,2.33 -1.46,1.461 a 4.506,4.506 0 0 0 -0.938,-0.524 z"
         id="path902" />
      <path
         inkscape:connector-curvature="0"
         d="m 50.651,53.235 c -4.15,-0.854 -6.452,-4.466 -7.03,-9.014 -0.455,-4.37 -1.379,-9.428 3.68,-7.127 a 13.554,13.554 0 0 1 8.725,9.883 c 1.144,4.328 0.015,9.097 -5.375,6.258 z"
         id="path904" />
      <path
         inkscape:connector-curvature="0"
         d="m 74.773,84.221 a 22.23,22.23 0 0 1 8.421,5.748 c 4.259,4.853 6.038,12.461 5.4,18.789 -0.537,5.333 -2.039,10.806 -7.47,13 -5.83,2.37 -12.406,1.681 -18.567,1.681 -7.926,0 -17.437,1.572 -25.156,-0.537 -4.851,-1.31 -5.61,-7.637 -5.54,-11.8 0.109,-6.63 0.33,-14.129 4.093,-19.793 3.515,-5.266 11.717,-6.231 17.464,-7.581 a 1.708,1.708 0 0 1 0.069,-0.221 c 1.186,-2.151 1.186,-4.769 1.034,-7.195 C 40.103,71.812 35.499,53.412 35.61,39.949 35.736,24.22 44.5,5.018 62.463,4.04 81.334,3.021 97.393,21.767 95.9,40 95.224,48.478 92.289,57.011 86.665,63.516 81.551,69.43 74.301,76.322 66.112,77.161 c 0.252,5.131 4.636,5.282 8.661,7.06 z m 10.6,28.023 c 1.228,-6.037 0.718,-13.177 -2.756,-18.47 -3.791,-5.776 -9.594,-7.8 -16.086,-8.891 -3.791,-0.647 -3.2,-5.886 -3.115,-8.5 a 2.424,2.424 0 0 1 1.571,-1.807 C 73.146,74.3 81.9,66.123 86.3,59.617 90.739,53.056 93.591,45.131 93.289,37.117 92.682,20.811 76.348,2.117 58.581,7.482 43.9,11.91 37.625,27.8 38.341,42.1 c 0.607,11.937 4.384,28.2 17.59,31.827 a 1.259,1.259 0 0 1 0.84,0.7 1.324,1.324 0 0 1 0.372,0.827 c 0.248,3.17 0.235,6.548 -1.323,9.415 -0.028,0.04 -0.07,0.055 -0.1,0.1 a 1.178,1.178 0 0 1 -0.937,1.2 C 47.384,88.012 37.928,88.9 35.9,97.8 a 51.219,51.219 0 0 0 -1.254,15.81 c 0.565,5.224 2.964,7.36 8.312,7.36 2.673,0 5.348,-0.22 8.021,-0.22 6.492,0 13,0.152 19.491,0.041 6.453,-0.124 13.387,-1.061 14.902,-8.547 z"
         id="path906" />
      <path
         inkscape:connector-curvature="0"
         d="m 46.252,41.663 a 5.646,5.646 0 0 1 3.159,2.828 c 0.746,1.564 3.063,0.2 2.321,-1.357 A 8.361,8.361 0 0 0 46.966,39.07 c -1.636,-0.582 -2.335,2.014 -0.714,2.593 z"
         id="path908" />
      <path
         inkscape:connector-curvature="0"
         d="m 82.019,44.763 a 5.471,5.471 0 0 1 2.853,-1.722 1.345,1.345 0 0 0 -0.714,-2.592 7.978,7.978 0 0 0 -4.04,2.413 c -1.128,1.3 0.765,3.214 1.9,1.9 z"
         id="path910" />
      <path
         inkscape:connector-curvature="0"
         d="m 47.216,27.112 c 2.187,-8.043 9.311,-12.1 16.98,-13.878 1.689,-0.392 0.973,-2.983 -0.714,-2.593 C 54.887,12.63 47.053,17.468 44.623,26.4 a 1.346,1.346 0 0 0 2.593,0.714 z"
         id="path912" />
      <path
         inkscape:connector-curvature="0"
         d="m 68.319,13.97 a 10.181,10.181 0 0 1 3.089,0.642 c 1.649,0.548 2.35,-2.047 0.713,-2.593 a 12.564,12.564 0 0 0 -3.8,-0.736 1.344,1.344 0 0 0 0,2.687 z"
         id="path914" />
      <path
         inkscape:connector-curvature="0"
         d="m 41.7,108.782 c 0.51,-2.947 0.766,-5.943 1.528,-8.843 1.051,-4.007 3.956,-5.75 7.871,-6.414 1.707,-0.289 0.981,-2.879 -0.714,-2.592 -3.695,0.627 -6.783,2.163 -8.664,5.507 -1.937,3.439 -1.955,7.831 -2.613,11.628 -0.294,1.7 2.3,2.419 2.592,0.714 z"
         id="path916" />
      <path
         inkscape:connector-curvature="0"
         d="M 70.719,92.147 A 5.612,5.612 0 0 1 74.4,94.63 c 0.922,1.462 3.248,0.115 2.321,-1.356 a 8.306,8.306 0 0 0 -5.284,-3.72 c -1.689,-0.37 -2.407,2.221 -0.713,2.593 z"
         id="path918" />
    </g>
  </g>
</svg>
