<?xml version="1.0" encoding="UTF-8" standalone="no"?>
<!-- Created with Inkscape (http://www.inkscape.org/) -->

<svg
   xmlns:dc="http://purl.org/dc/elements/1.1/"
   xmlns:cc="http://creativecommons.org/ns#"
   xmlns:rdf="http://www.w3.org/1999/02/22-rdf-syntax-ns#"
   xmlns:svg="http://www.w3.org/2000/svg"
   xmlns="http://www.w3.org/2000/svg"
   xmlns:sodipodi="http://sodipodi.sourceforge.net/DTD/sodipodi-0.dtd"
   xmlns:inkscape="http://www.inkscape.org/namespaces/inkscape"
   width="100"
   height="100"
   viewBox="0 0 26.458333 26.458334"
   version="1.1"
   id="svg8"
   inkscape:version="0.92.4 (5da689c313, 2019-01-14)"
   sodipodi:docname="spies.svg"
   enable-background="new">
  <defs
     id="defs2">
    <filter
       style="color-interpolation-filters:sRGB;"
       inkscape:label="Clean Edges"
       id="filter881">
      <feGaussianBlur
         stdDeviation="1.72534"
         result="blur"
         id="feGaussianBlur875" />
      <feComposite
         in="SourceGraphic"
         in2="blur"
         operator="in"
         result="composite1"
         id="feComposite877" />
      <feComposite
         in="composite1"
         in2="composite1"
         k2="1"
         operator="in"
         result="composite2"
         id="feComposite879" />
    </filter>
    <filter
       inkscape:collect="always"
       style="color-interpolation-filters:sRGB"
       id="filter1542"
       x="-0.12094637"
       width="1.2418927"
       y="-0.11906832"
       height="1.2381366">
      <feGaussianBlur
         inkscape:collect="always"
         stdDeviation="1.0674078"
         id="feGaussianBlur1544" />
    </filter>
  </defs>
  <sodipodi:namedview
     id="base"
     pagecolor="#ffffff"
     bordercolor="#666666"
     borderopacity="1.0"
     inkscape:pageopacity="0.0"
     inkscape:pageshadow="2"
     inkscape:zoom="3.959798"
     inkscape:cx="-3.7982747"
     inkscape:cy="48.943659"
     inkscape:document-units="px"
     inkscape:current-layer="layer1"
     showgrid="false"
     units="px"
     inkscape:window-width="1920"
     inkscape:window-height="1001"
     inkscape:window-x="-9"
     inkscape:window-y="644"
     inkscape:window-maximized="1"
     inkscape:snap-object-midpoints="true"
     inkscape:snap-bbox="true"
     inkscape:snap-bbox-midpoints="true"
     inkscape:snap-global="false"
     showguides="true"
     inkscape:guide-bbox="true">
    <sodipodi:guide
       position="13.296659,12.828938"
       orientation="1,0"
       id="guide1538"
       inkscape:locked="false" />
    <sodipodi:guide
       position="11.358955,13.363477"
       orientation="0,1"
       id="guide1540"
       inkscape:locked="false" />
  </sodipodi:namedview>
  <metadata
     id="metadata5">
    <rdf:RDF>
      <cc:Work
         rdf:about="">
        <dc:format>image/svg+xml</dc:format>
        <dc:type
           rdf:resource="http://purl.org/dc/dcmitype/StillImage" />
        <dc:title></dc:title>
      </cc:Work>
    </rdf:RDF>
  </metadata>
  <g
     inkscape:label="Layer 1"
     inkscape:groupmode="layer"
     id="layer1"
     transform="translate(0,-270.54165)">
    <ellipse
       style="opacity:0.6;fill:#ffe270;fill-opacity:1;stroke:none;stroke-width:0.18218057;stroke-miterlimit:4;stroke-dasharray:none;stroke-opacity:1;filter:url(#filter1542)"
       id="path1536"
       cx="13.296659"
       cy="283.63651"
       rx="10.590556"
       ry="10.7576" />
    <g
       id="g835"
       transform="matrix(0.21802774,0,0,0.21802774,-1.0231298,269.90477)">
      <path
         inkscape:connector-curvature="0"
         d="m 58.19,55.528 c -4.913,0.418 -3.825,13.005 2.582,9.36 2.139,-1.376 3.1,-3.755 1.865,-6.109 -0.825,-1.566 -2.475,-3.418 -4.447,-3.251 z M 61.944,66.9 c -3.957,2.26 -8.046,0.263 -8.87,-4.243 -0.586,-3.216 0.227,-8.427 4.1,-9.312 3.168,-0.717 6.383,1.674 7.6,4.519 a 6.936,6.936 0 0 1 -2.83,9.036 z"
         id="path821" />
      <path
         inkscape:connector-curvature="0"
         d="M 46.786,74.031 C 50.564,69.25 47.265,58.265 40.02,62.556 32.872,66.8 40.308,80.845 46.786,74.031 Z m 2.773,-10.7 A 11.593,11.593 0 0 1 48.436,75.679 C 39.602,84.966 28.836,66.486 38.311,60.868 42.125,58.6 47.4,58.97 49.559,63.334 Z"
         id="path823" />
      <path
         inkscape:connector-curvature="0"
         d="m 12.384,88.866 c 0.573,5.582 8.081,2.582 11.427,0.394 a 36.229,36.229 0 0 1 -3.717,-8.08 c -0.024,0 -0.048,0.023 -0.072,0.023 -3.191,0.288 -7.997,4.136 -7.638,7.663 z M 31.8,94.544 c 3.669,2.247 5.271,-3.192 6.179,-5.833 a 19.03,19.03 0 0 1 -8.415,-9.276 25.057,25.057 0 0 1 -2.57,-9.36 c -2.127,0 -4.8,0.669 -6.228,2.45 a 35.674,35.674 0 0 0 5.3,15.887 1.164,1.164 0 0 1 0.729,1.124 17.52,17.52 0 0 0 5.005,5.008 z m 83.866,-83.053 c 1.076,-1.578 0.43,-3.2 -0.742,-4.542 -2.845,-2.846 -7.685,5.4 -2.772,6.071 a 4.024,4.024 0 0 0 3.511,-1.529 z M 87.381,58.7 c 0.107,-5.787 -5.4,-11.739 -9.1,-15.564 -3.562,-3.694 -7.985,-8.343 -13.053,-10.113 -0.669,4.649 2.7,8.953 6.455,12.551 a 16.6,16.6 0 0 1 2.928,2.678 c 1.052,0.908 2.044,1.757 2.917,2.522 0.553,0.486 9.372,7.826 9.853,7.926 z m 22.054,-44.36 a 4.321,4.321 0 0 1 -1.016,-1.077 c -5.283,4.531 -9.682,9.887 -14.822,14.524 -4.818,4.363 -10.34,7.77 -15.373,11.87 0.861,0.885 1.686,1.77 2.439,2.607 0.359,0.406 0.741,0.824 1.123,1.255 A 351.839,351.839 0 0 1 109.435,14.336 Z M 49.07,95.787 a 15.968,15.968 0 0 0 5.08,-1.087 16.844,16.844 0 0 0 -4.423,-5.977 14.226,14.226 0 0 1 -3.861,1.268 21.163,21.163 0 0 1 3.204,5.796 z m 4.9,25.94 a 61.924,61.924 0 0 0 1.507,-6.228 h -6.36 a 48.39,48.39 0 0 0 -0.585,5.247 c -0.036,1.04 3.478,1.052 4.231,1.04 0.395,0 0.801,-0.023 1.207,-0.059 z m 2.355,-16.975 A 29.963,29.963 0 0 0 55,96.863 a 18.513,18.513 0 0 1 -5.248,1.207 26.671,26.671 0 0 1 0.657,6.671 h 5.87 c 0.01,0 0.021,0.011 0.046,0.011 z m -1.506,-19.3 a 21.218,21.218 0 0 1 7.136,7.243 1.706,1.706 0 0 1 0.251,-0.132 21.441,21.441 0 0 0 7.471,-3.621 c -3.167,-2.522 -7.052,-4.507 -8.738,-8.141 -0.334,0.251 -0.669,0.5 -1.016,0.741 -1.685,1.18 -3.371,2.579 -5.104,3.906 z m 1.53,21.66 a 0.169,0.169 0 0 1 -0.071,0.023 H 50.3 c -0.132,1.6 -0.335,3.24 -0.622,4.914 -0.12,0.753 -0.251,1.5 -0.371,2.258 h 6.36 a 49.474,49.474 0 0 0 0.682,-7.199 z m 2.4,-27.577 c 4.985,-3.443 8.5,-7.7 12.372,-12.253 3.872,-4.553 7.342,-10.116 3.079,-15.735 -7.806,-10.28 -20.931,-7.232 -30.518,-1.375 -4.709,2.881 -10.423,6.168 -12.85,11.38 -2.51,5.391 -1.9,11.44 0.753,16.688 2.236,4.423 6.037,9.5 11.524,9.562 a 0.938,0.938 0 0 1 0.741,-0.011 c 6.128,-0.419 10.133,-4.925 14.902,-8.26 z m 1.951,39.18 c 8.1,-9.122 1.983,-26.645 -7.95,-31.773 -0.287,0.19 -0.562,0.382 -0.849,0.562 8.7,7.973 7.567,23.19 4.627,33.757 A 8.716,8.716 0 0 0 60.7,118.715 Z M 18.349,71.569 a 1.056,1.056 0 0 1 1.2,-1.111 c 1.972,-1.841 4.734,-2.391 7.412,-2.737 A 19.216,19.216 0 0 1 28.2,61.744 c 2.355,-6.2 8.822,-10.412 14.309,-13.58 6.849,-3.956 16.089,-7.053 23.8,-5.056 -2.726,-3.574 -4.352,-7.555 -3.084,-11.894 a 1.18,1.18 0 0 1 1.434,-0.813 C 69,31.489 73.1,34.645 76.575,38 c 5.008,-4.077 10.722,-7.376 15.372,-11.858 5.116,-4.949 9.742,-10.28 15.2,-14.871 a 1.1,1.1 0 0 1 0.585,-0.251 c -0.143,-4.291 5.081,-9.491 8.835,-5.726 1.983,2.272 2.893,5.463 0.669,7.926 a 6.437,6.437 0 0 1 -5.439,2.068 c 0,0.011 0,0.011 -0.012,0.024 A 349.073,349.073 0 0 0 83.4,45.2 c -0.024,0.035 -0.059,0.035 -0.083,0.071 3.3,3.9 6.574,8.631 6.4,13.544 0.012,0.023 0,0.048 0.012,0.084 a 0.4,0.4 0 0 0 0,0.119 0.167,0.167 0 0 0 -0.024,0.071 1.613,1.613 0 0 1 -0.024,0.24 c -1.494,4.9 -9.742,-3.192 -11.487,-4.8 -0.061,-0.06 -0.12,-0.108 -0.18,-0.168 1,3.742 0.108,7.484 -2.39,11.057 A 66.76,66.76 0 0 1 62.876,79.327 c 1.411,3.993 6.539,5.989 9.467,8.75 a 1.18,1.18 0 0 1 -0.012,1.65 c -2.5,2.594 -5.869,3.945 -9.24,5 C 69.881,108.3 65.948,128.253 47,123.2 a 1.19,1.19 0 0 1 -0.861,-1.124 c 0.49,-11.427 5.4,-22.4 -3.2,-31.964 -0.239,-0.023 -0.466,-0.035 -0.7,-0.071 a 12.971,12.971 0 0 1 -2.092,-0.467 c -0.944,2.75 -2.1,6.8 -4.9,7.913 -2.713,1.088 -5.475,-1.3 -7.34,-3.095 a 25.922,25.922 0 0 1 -2.784,-3.2 c -4.639,3.048 -13.365,5.667 -14.978,-1.53 -1.112,-4.96 4.793,-9.933 9.324,-10.7 a 34.485,34.485 0 0 1 -1.12,-7.393 z"
         id="path825" />
      <path
         inkscape:connector-curvature="0"
         d="m 22.638,73.662 a 22.506,22.506 0 0 0 2.949,9.155 c 0.731,1.313 2.745,0.137 2.012,-1.177 a 19.713,19.713 0 0 1 -2.63,-7.978 c -0.126,-1.486 -2.458,-1.5 -2.331,0 z"
         id="path827" />
      <path
         inkscape:connector-curvature="0"
         d="m 54.994,50.082 c 6.319,-1.336 12.216,-0.436 16.017,5.243 0.831,1.242 2.851,0.077 2.012,-1.177 -4.4,-6.582 -11.238,-7.881 -18.649,-6.314 -1.47,0.311 -0.846,2.557 0.62,2.248 z"
         id="path829" />
      <path
         inkscape:connector-curvature="0"
         d="m 36.925,81.661 c 4.378,4.823 10.721,3.21 15.2,-0.6 1.146,-0.976 -0.511,-2.616 -1.648,-1.648 -3.528,3 -8.413,4.439 -11.9,0.6 -1.012,-1.115 -2.656,0.538 -1.649,1.648 z"
         id="path831" />
      <path
         inkscape:connector-curvature="0"
         d="m 17.2,89.005 a 3.284,3.284 0 0 1 2.012,-3.178 c 1.329,-0.7 0.151,-2.715 -1.177,-2.012 a 5.548,5.548 0 0 0 -3.167,5.19 c 0.114,1.488 2.446,1.5 2.332,0 z"
         id="path833" />
    </g>
  </g>
</svg>
